<svg width="51" height="54" viewBox="0 0 51 54" fill="none" xmlns="http://www.w3.org/2000/svg">
<path d="M13.9967 46.5969C13.7685 46.5969 13.5758 46.5969 13.3761 46.5969C10.3157 46.5969 7.24811 46.5187 4.18768 46.6253C1.75503 46.7106 -0.656215 44.6358 0.157045 41.5093C1.02738 38.1484 3.1176 36.0239 6.50619 35.1783C6.53472 35.1712 6.56326 35.1428 6.63459 35.086C4.75125 33.8354 3.74538 32.1087 3.89519 29.835C3.98793 28.3997 4.59431 27.1704 5.65726 26.197C7.92582 24.1079 11.4357 24.2643 13.5259 26.4741C15.3878 28.4423 15.9942 32.599 12.2561 35.1286C15.2452 35.8676 17.2997 37.6368 18.4269 40.4009C19.768 39.8964 21.1021 39.399 22.4004 38.9158C20.032 37.6226 18.6409 35.5478 18.6266 32.6985C18.6195 30.7445 19.4042 29.0747 20.8524 27.7389C23.7345 25.0743 28.3073 25.394 30.8113 28.3997C33.4294 31.5474 32.8515 36.706 28.6354 38.93C29.8981 39.3919 31.2179 39.8822 32.5876 40.3867C33.6933 37.6653 35.7408 35.8676 38.8012 35.1215C36.8108 33.7999 35.805 32.0022 36.0332 29.6502C36.1831 28.1226 36.9107 26.8578 38.1306 25.8985C40.5276 24.0156 44.0089 24.4206 45.9137 26.7796C47.7257 29.0178 47.7613 32.8477 44.3799 35.1002C44.5011 35.1428 44.5868 35.1783 44.6724 35.1996C48.6174 36.166 50.9288 39.5695 51.0072 42.7883C51.0643 44.8773 49.3308 46.5827 47.212 46.5969C44.0232 46.6111 40.8343 46.604 37.6455 46.604C37.4529 46.604 37.2531 46.604 37.0891 46.604C37.1604 47.3785 37.2817 48.1104 37.2817 48.8351C37.2745 51.1657 35.1986 53.2618 32.8587 53.2761C27.9577 53.2974 23.0568 53.3045 18.1629 53.2761C15.4521 53.2618 13.3048 50.5618 13.7756 47.8688C13.8398 47.4566 13.9183 47.0516 13.9967 46.5969ZM25.5179 51.99C27.8578 51.99 30.1978 52.0042 32.5377 51.9829C34.5779 51.9686 36.1403 50.3131 35.9904 48.3804C35.6908 44.6002 32.7445 41.1683 28.985 40.4861C27.3727 40.1948 25.6963 40.2446 24.0412 40.2446C19.661 40.2374 16.0442 43.2218 15.1596 47.4993C14.6103 50.1567 16.1012 51.99 18.8192 51.99C21.0521 51.99 23.285 51.99 25.5179 51.99ZM8.94597 45.2966C10.6367 45.2966 12.3346 45.2895 14.0253 45.3037C14.332 45.3037 14.5032 45.2255 14.6317 44.9271C15.1881 43.6836 15.9728 42.5965 16.993 41.687C17.2926 41.4241 17.314 41.1896 17.1784 40.8485C16.3224 38.724 14.8171 37.2673 12.6199 36.5923C10.9577 36.0807 9.23132 36.2015 7.53346 36.3436C5.40044 36.5284 3.73825 37.5942 2.51122 39.3208C1.8121 40.3085 1.43401 41.4241 1.31273 42.6178C1.17005 44.046 2.39708 45.2753 3.9808 45.2966C5.63585 45.3108 7.29091 45.2966 8.94597 45.2966ZM42.04 45.2966C43.7164 45.2966 45.3857 45.3108 47.0622 45.2895C48.6103 45.2682 49.8587 44.0318 49.6875 42.632C49.3308 39.7259 47.7756 37.7079 45.0077 36.6705C43.4239 36.0807 41.7689 36.2299 40.1424 36.2939C37.246 36.4005 34.7492 38.2692 33.8075 40.8841C33.6862 41.218 33.7147 41.4241 33.993 41.6728C35.006 42.5823 35.805 43.6694 36.3543 44.9129C36.497 45.2397 36.6896 45.3037 37.0106 45.3037C38.6942 45.2895 40.3706 45.2966 42.04 45.2966ZM31.0609 32.7909C31.0752 29.7355 28.5926 27.2273 25.5322 27.213C22.4718 27.1988 19.9749 29.6787 19.9607 32.7482C19.9464 35.7965 22.4076 38.2976 25.4395 38.319C28.5427 38.3332 31.0395 35.8818 31.0609 32.7909ZM41.562 34.4891C43.909 34.482 45.828 32.5706 45.8209 30.2471C45.8209 27.9236 43.8948 26.0193 41.5477 26.0193C39.2078 26.0193 37.2817 27.9307 37.2888 30.2542C37.2959 32.5848 39.2292 34.4962 41.562 34.4891ZM9.31693 34.482C11.6283 34.5886 13.6044 32.7482 13.7185 30.3892C13.8184 28.1723 11.9493 26.1117 9.75209 26.0264C7.29804 25.927 5.32196 27.682 5.19355 30.0695C5.06514 32.4001 6.90568 34.3683 9.31693 34.482Z" fill="#701084"/>
<path d="M34.3499 4.10583C34.3856 3.51607 34.8136 3.2887 35.2416 3.04711C36.6969 2.22287 38.138 1.38442 39.5862 0.545971C39.8929 0.368333 40.1925 0.204906 40.535 0.453599C40.8702 0.695186 40.8274 1.02915 40.749 1.37732C40.5564 2.30103 40.378 3.23185 40.1925 4.1982C41.0985 4.51085 41.976 4.81638 42.8606 5.10771C43.2173 5.2214 43.574 5.33508 43.6311 5.76142C43.6881 6.22327 43.3243 6.40802 42.989 6.59276C41.605 7.38858 40.2211 8.1915 38.83 8.98732C38.3734 9.25022 37.9382 9.64813 37.3176 9.23601C39.2509 17.2866 34.1216 22.8644 29.2706 24.4631C23.6277 26.3248 17.4212 23.987 14.4464 18.7858C11.5144 13.6485 12.6844 7.1541 17.193 3.25317C21.6302 -0.5767 29.2706 -1.10251 34.3499 4.10583ZM33.1585 9.00863C35.42 14.4088 32.3738 19.0132 28.8283 20.5693C24.8547 22.3173 20.1606 20.8819 17.8921 17.1587C15.6164 13.4354 16.5295 8.60362 19.9609 5.88931C23.2924 3.25317 29.1707 3.1679 32.5165 7.85044C32.7448 7.72254 32.9802 7.58753 33.2085 7.45253C34.0003 6.99777 34.1858 5.91063 33.5652 5.25692C30.7616 2.30103 27.3373 1.10731 23.3067 1.77522C17.407 2.77 13.2693 8.58941 14.2823 14.4443C15.3239 20.4698 20.7456 24.4631 26.8165 23.6815C33.6793 22.7933 38.1094 15.6878 35.8694 9.15785C35.6911 8.63204 34.621 8.19861 34.1287 8.4544C33.8077 8.62494 33.501 8.80968 33.1585 9.00863ZM31.3037 8.55388C29.2421 5.31377 24.5908 4.41137 21.2878 6.57144C17.8493 8.81678 16.9147 13.4212 19.219 16.7963C21.5446 20.1998 26.1888 21.0312 29.5559 18.6508C32.8233 16.3415 33.287 12.0853 31.9173 9.72629C31.2966 10.0816 30.6831 10.4582 30.0482 10.7921C29.7414 10.9555 29.6701 11.1119 29.7628 11.46C30.5832 14.4799 28.3503 17.3576 25.2186 17.3008C23.2924 17.2652 21.8799 16.3202 21.088 14.5936C20.2748 12.8314 20.5387 11.1332 21.8086 9.67655C23.057 8.24834 24.6692 7.75806 26.5383 8.24124C27.5513 8.50414 28.336 9.10811 29.0138 9.88261C29.7771 9.43496 30.5261 9.00153 31.3037 8.55388ZM27.7867 10.579C26.8379 9.31417 24.9189 9.01574 23.5278 9.88261C22.0582 10.7992 21.5375 12.6822 22.3365 14.217C23.1355 15.7589 24.9831 16.4268 26.574 15.7589C28.1434 15.0981 28.9638 13.3714 28.4359 11.7514C28.2718 11.8366 28.1149 11.9077 27.9651 11.9929C27.1875 12.4335 26.417 12.9096 25.618 13.3075C25.4183 13.4069 25.0402 13.343 24.8547 13.208C24.712 13.1085 24.6621 12.7532 24.7049 12.5472C24.7406 12.3766 24.9689 12.2203 25.1472 12.1137C26.0104 11.595 26.8807 11.0977 27.7867 10.579ZM35.0633 7.14699C35.9693 7.43832 36.8039 7.71543 37.6386 7.97833C37.7313 8.00676 37.8598 8.02097 37.9382 7.97123C39.0511 7.34594 40.164 6.70645 41.3768 6.01011C40.6919 5.77563 40.1212 5.58378 39.5576 5.37061C38.9584 5.14324 38.7444 4.72401 38.8656 4.09873C38.9798 3.52318 39.0868 2.95474 39.2152 2.27972C38.0238 2.96184 36.9252 3.59423 35.8266 4.23373C35.7339 4.29058 35.6625 4.41847 35.634 4.52506C35.4414 5.38482 35.263 6.23748 35.0633 7.14699Z" fill="#701084"/>
</svg>
