<svg width="58" height="71" viewBox="0 0 58 71" fill="none" xmlns="http://www.w3.org/2000/svg">
<path d="M52.8338 0.18413C53.4787 0.18413 54.1235 0.18413 54.7624 0.18413C54.852 0.18413 54.9415 0.178078 55.0311 0.196235C55.2819 0.238603 55.4789 0.462544 55.455 0.698591C55.4311 0.958847 55.2878 1.15253 55.0251 1.15858C53.5623 1.17068 52.0934 1.17068 50.6305 1.15858C50.3559 1.15858 50.1708 0.904375 50.1887 0.650171C50.2066 0.383862 50.4156 0.196235 50.7201 0.190183C51.4306 0.178078 52.1292 0.18413 52.8338 0.18413Z" fill="#701084"/>
<path d="M52.8107 3.40486C52.13 3.40486 51.4433 3.41091 50.7627 3.40486C50.3268 3.39881 50.0581 3.04776 50.2551 2.72698C50.3447 2.58172 50.5597 2.44252 50.7209 2.43646C52.124 2.41225 53.5332 2.41831 54.9363 2.42436C55.2468 2.42436 55.4677 2.65435 55.4618 2.92671C55.4558 3.19908 55.2468 3.39881 54.9184 3.40486C54.2138 3.41091 53.5093 3.40486 52.8107 3.40486Z" fill="#701084"/>
<path d="M14.0412 70.7621C13.9457 70.4716 13.7367 70.1629 13.7666 69.8906C14.1368 66.707 14.5368 63.5234 14.9369 60.3398C14.9667 60.1098 15.0145 59.8858 15.0622 59.6377C16.1848 59.6377 17.2834 59.6377 18.4239 59.6377C18.4179 59.7164 18.4358 59.8011 18.406 59.8677C17.3372 62.0224 17.3372 64.3042 17.6059 66.6162C17.6894 67.3485 17.773 68.0869 17.8148 68.8193C17.8865 70.048 17.7372 70.284 16.6744 70.7621C15.7967 70.7621 14.9189 70.7621 14.0412 70.7621Z" fill="#701084"/>
<path d="M3.31715 34.108C3.91424 33.0791 4.42774 32.2075 4.92929 31.3359C5.32934 30.646 5.29352 30.3554 4.75017 29.7623C1.79457 26.5545 0.463056 22.7535 0.928787 18.3897C1.60947 12.0891 6.2011 7.18051 12.0944 6.06685C19.8148 4.60821 26.7947 9.34729 28.4905 17.1066C30.1325 24.6116 25.0214 32.4193 17.5578 33.8235C14.4887 34.3985 11.557 34.0353 8.72082 32.7038C8.38645 32.5464 7.89683 32.5222 7.54455 32.6312C6.17721 33.0609 4.83973 33.5693 3.31715 34.108ZM19.8386 20.7744C20.2566 20.7744 20.6746 20.7986 21.0866 20.7683C21.606 20.7259 21.8867 20.3749 21.8926 19.8847C21.8986 19.4005 21.6359 19.007 21.1164 18.9828C20.3044 18.9465 19.4923 18.9405 18.6803 18.9828C18.1728 19.0131 17.9041 19.3702 17.916 19.8847C17.928 20.3991 18.2086 20.7138 18.7161 20.7623C19.0863 20.8046 19.4625 20.7744 19.8386 20.7744ZM14.8291 20.7804C15.2052 20.7804 15.5814 20.8046 15.9516 20.7744C16.489 20.7381 16.7994 20.4052 16.7935 19.8665C16.7935 19.3278 16.489 18.9889 15.9456 18.9707C15.1754 18.9465 14.4051 18.9465 13.6349 18.9768C13.1453 18.9949 12.7571 19.4428 12.8109 19.9089C12.8646 20.3931 13.1214 20.7381 13.6408 20.7744C14.0349 20.7986 14.429 20.7744 14.8291 20.7804ZM9.71199 20.7804C10.0882 20.7804 10.4583 20.7986 10.8345 20.7744C11.3719 20.7441 11.6824 20.4415 11.6884 19.8907C11.7003 19.346 11.4137 18.9949 10.8703 18.9768C10.1001 18.9465 9.32985 18.9465 8.56557 18.9768C8.01625 18.9949 7.73562 19.346 7.73562 19.8847C7.74159 20.4294 8.04013 20.7441 8.58349 20.7744C8.96562 20.7986 9.33582 20.7804 9.71199 20.7804Z" fill="#701084"/>
<path d="M40.4131 63.7052C40.1743 63.5902 39.9892 63.5055 39.8101 63.4147C35.3498 60.9937 30.8895 58.5667 26.4233 56.1578C26.0591 55.9641 25.9337 55.7462 25.9397 55.3286C25.9576 51.0556 25.9516 46.7886 25.9456 42.5155C25.9456 42.1766 25.9994 41.9405 26.3397 41.759C30.9194 39.2895 35.4871 36.808 40.0608 34.3265C40.1624 34.272 40.2818 34.2418 40.4191 34.1934C40.4131 44.0347 40.4131 53.8276 40.4131 63.7052Z" fill="#701084"/>
<path d="M24.1503 48.9312C24.1503 51.4248 24.1503 53.9184 24.1503 56.4181C24.1503 57.4773 23.8578 57.7799 22.8069 57.7799C19.1169 57.7799 15.4209 57.786 11.7309 57.7799C9.64701 57.7739 8.36327 56.5028 8.35133 54.3905C8.33341 50.753 8.33341 47.1154 8.35133 43.4779C8.36327 41.3716 9.64701 40.0946 11.7309 40.0885C15.4448 40.0825 19.1587 40.0825 22.8726 40.0885C23.8339 40.0885 24.1503 40.4154 24.1563 41.3838C24.1503 43.9016 24.1503 46.4134 24.1503 48.9312ZM12.6504 46.02C13.1101 46.02 13.5699 46.0381 14.0237 46.0139C14.6148 45.9897 15.0029 45.6023 14.9969 45.0758C14.991 44.5795 14.6267 44.1982 14.0535 44.186C13.1161 44.1558 12.1787 44.1558 11.2412 44.186C10.674 44.2042 10.2978 44.5916 10.2919 45.0818C10.2859 45.5902 10.6919 45.9957 11.2711 46.02C11.7309 46.0321 12.1906 46.02 12.6504 46.02ZM12.6146 53.6763V53.6824C13.0922 53.6824 13.5759 53.7005 14.0535 53.6763C14.6208 53.6521 14.985 53.2829 14.991 52.7866C14.9969 52.2782 14.6327 51.8727 14.0774 51.8606C13.1221 51.8364 12.1608 51.8364 11.1994 51.8606C10.6621 51.8727 10.2501 52.3024 10.2919 52.7927C10.3337 53.3192 10.6262 53.6521 11.1756 53.6763C11.6592 53.6945 12.1369 53.6763 12.6146 53.6763ZM12.6563 49.8391C13.1161 49.8391 13.5759 49.8512 14.0297 49.8391C14.6267 49.8209 15.0089 49.4457 14.991 48.913C14.979 48.4046 14.6148 48.0415 14.0476 48.0354C13.1101 48.0173 12.1727 48.0173 11.2353 48.0354C10.6859 48.0475 10.2978 48.4349 10.2919 48.9251C10.2859 49.4154 10.68 49.8149 11.2174 49.8391C11.695 49.8572 12.1727 49.8391 12.6563 49.8391Z" fill="#701084"/>
<path d="M50.0508 13.1551C51.4361 13.1551 52.7258 13.1551 54.0155 13.1551C54.7857 13.1551 55.2336 13.5182 55.2156 14.1174C55.1977 14.6985 54.7678 15.0374 54.0274 15.0374C52.672 15.0374 51.3166 15.0434 49.9612 15.0192C49.591 15.0132 49.4119 15.1221 49.3044 15.5034C48.994 16.6352 48.6297 17.755 48.2655 18.9352C48.4864 18.9594 48.6417 18.9897 48.7909 18.9897C50.1463 19.0018 51.5017 18.9957 52.8571 19.0139C53.5975 19.0199 53.9976 19.3891 53.9797 19.9944C53.9677 20.5875 53.5975 20.8962 52.8631 20.8962C51.3644 20.8962 49.8597 20.9204 48.361 20.8659C47.7878 20.8478 47.5789 21.0536 47.4356 21.5862C47.0654 22.9238 46.6414 24.2493 46.2175 25.5748C46.0264 26.1679 45.5667 26.4221 45.0711 26.2587C44.5456 26.0892 44.3247 25.6595 44.4561 25.0542C44.48 24.9332 44.5277 24.8121 44.5636 24.6911C44.88 23.644 45.1965 22.5969 45.5129 21.5499C45.5726 21.3501 45.6264 21.1504 45.6921 20.9083C44.3247 20.9083 42.9992 20.9083 41.602 20.9083C41.184 22.264 40.7541 23.644 40.3302 25.024C40.2705 25.2237 40.2227 25.4355 40.151 25.6292C39.9421 26.1618 39.4883 26.416 39.0226 26.2708C38.4732 26.1013 38.2225 25.6232 38.3956 25.0179C38.7479 23.8074 39.1241 22.5969 39.4883 21.3925C39.5301 21.2533 39.5599 21.1141 39.6196 20.8538C38.7419 20.8538 37.9179 20.8538 37.0939 20.8538C36.5327 20.8538 35.9654 20.8659 35.4042 20.8236C34.8549 20.7872 34.4787 20.3757 34.4727 19.8915C34.4668 19.3831 34.8668 18.9715 35.4579 18.9654C36.8551 18.9533 38.2523 18.9473 39.6495 18.9897C40.1152 19.0018 40.3003 18.8383 40.4197 18.4026C40.7302 17.2708 41.0885 16.151 41.4527 14.9345C40.0675 14.9345 38.7598 14.9345 37.4522 14.9345C37.2014 14.9345 36.9506 14.9406 36.6999 14.9284C36.0908 14.9042 35.7087 14.5653 35.6908 14.0387C35.6669 13.4819 36.055 13.0582 36.682 13.0522C37.8284 13.034 38.9748 13.0522 40.1212 13.0582C40.581 13.0582 41.0407 13.034 41.4945 13.0764C41.9065 13.1127 42.0797 12.9553 42.1931 12.568C42.5991 11.1517 43.029 9.74148 43.4649 8.3373C43.6858 7.61706 44.2232 7.33259 44.7964 7.59285C45.2621 7.80468 45.4353 8.26467 45.2502 8.88202C44.8919 10.0925 44.5158 11.303 44.1516 12.5075C44.1038 12.6648 44.0739 12.8222 44.0023 13.1188C45.3278 13.1188 46.5937 13.1309 47.8535 13.1006C47.9789 13.0945 48.1461 12.8403 48.1998 12.6709C48.6357 11.3091 49.0417 9.93515 49.4597 8.5673C49.5075 8.40388 49.5433 8.23441 49.6149 8.08915C49.8478 7.61706 50.218 7.39312 50.7375 7.55048C51.233 7.69574 51.5017 8.16178 51.3525 8.68834C51.0062 9.90489 50.63 11.1093 50.2717 12.3198C50.224 12.568 50.1523 12.804 50.0508 13.1551ZM42.1871 18.9776C43.6082 18.9776 44.9397 18.9776 46.3071 18.9776C46.7011 17.6763 47.0952 16.3871 47.5191 14.9829C46.1757 14.9829 44.9457 14.9708 43.7217 15.0011C43.5784 15.0071 43.3694 15.2008 43.3216 15.3521C42.9335 16.5263 42.5752 17.7126 42.1871 18.9776Z" fill="#701084"/>
<path d="M43.8668 48.9316C43.8668 54.2759 43.8668 59.6263 43.8668 64.9706C43.8668 65.2006 43.9384 65.4851 43.8309 65.6546C43.6638 65.9269 43.3951 66.2901 43.1443 66.3143C42.8875 66.3385 42.5532 66.0419 42.3442 65.7998C42.2188 65.6606 42.2606 65.358 42.2606 65.128C42.2546 54.3304 42.2546 43.5267 42.2606 32.7291C42.2606 32.4809 42.2367 32.1602 42.3681 31.9968C42.5591 31.7668 42.8995 31.5126 43.1443 31.5368C43.3951 31.561 43.6638 31.8878 43.819 32.142C43.9265 32.3115 43.8608 32.5959 43.8608 32.8259C43.8668 38.1945 43.8668 43.563 43.8668 48.9316Z" fill="#701084"/>
<path d="M45.7402 53.3314C45.7402 50.3718 45.7402 47.509 45.7402 44.634C47.9077 46.1411 48.7436 50.5836 45.7402 53.3314Z" fill="#701084"/>
<path d="M54.9783 37.0253C54.7633 37.3461 54.6499 37.6426 54.4409 37.8C53.2109 38.7018 51.9689 39.5734 50.7091 40.4389C50.2254 40.7718 49.6821 40.6628 49.3895 40.2391C49.085 39.8034 49.1626 39.2647 49.6462 38.9137C50.8763 38.0179 52.1122 37.1282 53.384 36.2929C53.6288 36.1356 54.0826 36.1356 54.3633 36.2566C54.62 36.3595 54.7573 36.7287 54.9783 37.0253Z" fill="#701084"/>
<path d="M50.0099 57.126C50.3263 57.2591 50.5353 57.3075 50.7025 57.4165C51.7355 58.1307 52.7804 58.8267 53.7716 59.6014C54.0164 59.7951 54.1955 60.2491 54.1776 60.5638C54.1597 60.8119 53.8253 61.1085 53.5626 61.2538C53.3894 61.3506 53.0431 61.3143 52.864 61.1932C51.7534 60.4488 50.6428 59.6922 49.5859 58.8691C49.3591 58.6936 49.2337 58.1731 49.3053 57.8765C49.377 57.5799 49.7651 57.3681 50.0099 57.126Z" fill="#701084"/>
<path d="M54.7257 47.9802C55.3049 47.9802 55.89 47.962 56.4692 47.9862C57.1499 48.0104 57.544 48.3917 57.5261 48.9667C57.5082 49.5175 57.126 49.8625 56.4632 49.8746C55.3228 49.8927 54.1764 49.8927 53.0359 49.8746C52.3732 49.8625 51.991 49.5114 51.9791 48.9667C51.9612 48.3917 52.3612 48.0104 53.0419 47.9862C53.6032 47.962 54.1644 47.9802 54.7257 47.9802Z" fill="#701084"/>
<path d="M21.2251 59.7044C21.0937 61.0602 20.9564 62.4099 20.825 63.7899C20.3115 63.7899 19.8577 63.7899 19.2129 63.7899C19.4219 62.9062 19.5831 62.0588 19.8279 61.2357C19.9652 60.7818 20.216 60.352 20.4787 59.9526C20.5981 59.765 20.8609 59.6742 21.0579 59.541C21.1116 59.5894 21.1654 59.6439 21.2251 59.7044Z" fill="#701084"/>
</svg>
