<svg width="49" height="66" viewBox="0 0 49 66" fill="none" xmlns="http://www.w3.org/2000/svg">
<path d="M13.0247 34.0459C14.9524 35.1011 16.9452 34.3064 18.925 34.6842C18.8338 34.8145 18.7557 34.9838 18.632 35.1076C18.0914 35.6417 17.5183 36.1497 16.9908 36.7034C15.8446 37.8953 16.0921 38.9635 17.6095 39.5888C19.6414 40.429 21.5691 40.1033 23.3796 39.0286C25.0728 38.0256 26.5316 38.2275 28.0034 39.4715C30.5759 41.6535 33.1939 43.7834 35.7859 45.9458C36.7692 46.7665 37.8047 47.4765 39.0877 47.75C39.27 47.7891 39.4784 47.9129 39.5826 48.0692C40.0581 48.7661 39.9473 50.0297 39.3808 50.6615C38.6253 51.5017 37.8503 51.632 36.9321 50.9742C35.7338 50.1079 34.5745 49.183 33.4023 48.2841C32.3929 47.509 31.3834 46.7405 30.3805 45.9589C30.0809 45.7309 29.8139 45.555 29.5013 45.9393C29.1561 46.3627 29.4101 46.6102 29.7227 46.8512C31.4811 48.206 33.246 49.5477 35.0044 50.9025C36.1961 51.8209 36.5608 52.9998 36.0398 54.1722C35.4277 55.5531 34.1382 55.9048 32.9204 55.0124C31.1359 53.6967 29.3645 52.3615 27.5671 51.0588C27.3457 50.9025 26.9419 50.7657 26.74 50.8634C26.2711 51.0849 26.3167 51.4952 26.8377 51.886C28.4854 53.1171 30.1395 54.3351 31.7872 55.5596C32.8487 56.3477 32.9399 56.7776 32.6794 58.0477C32.4059 59.3894 30.4521 60.0147 29.4101 59.0703C27.8927 57.6894 26.2385 56.4519 24.643 55.1492C24.5323 55.0645 24.4216 54.9799 24.3108 54.8952C23.9982 54.6477 23.7117 54.576 23.4121 54.9278C23.0995 55.2925 23.3405 55.527 23.601 55.7354C24.7081 56.6408 25.8283 57.5396 26.9419 58.445C27.3392 58.7641 27.7429 59.0768 28.1272 59.4025C29.091 60.2231 29.3515 61.5519 28.7524 62.568C28.1858 63.5254 26.7921 63.9097 25.6329 63.4277C25.444 63.3496 25.2617 63.2258 25.0663 63.1672C24.4411 62.9783 24.2587 62.6591 24.3695 61.9492C24.643 60.2492 23.0018 58.6664 20.9569 58.5753C21.0807 57.5266 21.0025 56.5105 20.2536 55.6703C19.5111 54.8366 18.5799 54.4849 17.4076 54.537C17.4662 53.2929 17.1732 52.1922 16.2093 51.3519C15.2455 50.5117 14.1383 50.2968 12.8749 50.655C12.6405 49.3849 11.9371 48.473 10.9407 47.7761C9.9508 47.0726 8.86321 46.8121 7.80819 47.1508C7.1895 46.1217 6.59687 45.1773 6.05633 44.2002C5.98469 44.0765 6.12797 43.7769 6.24519 43.6075C8.2315 40.7937 10.2243 37.9865 12.2171 35.1792C12.4776 34.8014 12.7447 34.4302 13.0247 34.0459Z" fill="#701084"/>
<path d="M24.6962 25.5394C25.5233 24.6405 26.2723 23.8589 26.9691 23.0382C27.1189 22.8624 27.1319 22.5172 27.0993 22.2632C26.8063 20.0877 26.4872 17.9187 26.1485 15.5674C27.1059 15.7042 28.0111 15.7758 28.8903 15.9647C31.1436 16.4402 33.3969 16.9352 35.6372 17.4758C37.3956 17.8992 38.0338 18.7394 38.1966 20.5371C38.3529 22.3087 38.5353 24.0804 38.7307 25.8455C38.8674 27.0961 38.633 27.3696 37.3696 27.3631C29.268 27.3566 21.173 27.3566 13.0714 27.3501C11.7364 27.3501 11.5345 27.1808 11.6713 25.8651C11.8601 24.0087 12.075 22.1459 12.3811 20.3026C12.5895 19.0456 13.4036 18.1988 14.6475 17.8471C17.259 17.1046 19.877 16.3816 22.5015 15.6716C23.3937 15.4306 23.4654 15.5153 23.3351 16.4076C23.0681 18.2379 22.8011 20.0681 22.5211 21.8919C22.4299 22.4976 22.5015 22.9992 22.9639 23.4681C23.55 24.0804 24.058 24.7708 24.6962 25.5394Z" fill="#701084"/>
<path d="M37.3101 33.1925C39.0489 37.6542 40.7617 42.0442 42.4875 46.4603C40.1495 47.1833 38.2218 46.6166 36.4634 45.099C33.9431 42.93 31.3642 40.8327 28.8113 38.6898C26.7598 36.9703 25.1382 36.801 22.7872 38.0776C21.2112 38.9308 19.6026 39.237 17.8833 38.4749C17.2972 38.2144 17.3363 37.9603 17.727 37.576C19.0881 36.2213 20.4297 34.8535 21.7973 33.5117C22.8002 32.5282 24.0311 32.4435 25.3466 32.6585C28.2838 33.1339 31.2209 33.5638 34.158 34.0328C35.1023 34.1826 35.9294 33.8634 36.75 33.4726C36.9128 33.3814 37.0756 33.3033 37.3101 33.1925Z" fill="#701084"/>
<path d="M42.729 29.5059C43.1654 30.6066 43.5952 31.6683 44.012 32.7365C45.6401 36.9246 47.2617 41.1192 48.9029 45.3008C49.0787 45.7437 49.0526 45.9196 48.5772 46.115C47.4245 46.5839 46.3109 47.1376 45.1777 47.6586C44.9302 47.7694 44.6763 47.8605 44.3702 47.9778C43.7189 46.3104 43.0937 44.695 42.462 43.0928C41.0618 39.5299 39.6681 35.9606 38.2354 32.4108C37.9944 31.8051 38.1377 31.5901 38.6978 31.3557C40.0133 30.802 41.2963 30.1702 42.729 29.5059Z" fill="#701084"/>
<path d="M9.26077 29.252C10.433 30.2159 11.5271 31.1018 12.5952 32.0136C12.7059 32.1048 12.758 32.45 12.6733 32.5673C9.70362 36.7423 6.71438 40.9044 3.73166 45.0664C3.70561 45.099 3.65351 45.112 3.55582 45.1641C2.40311 44.2262 1.23086 43.2752 0 42.2722C3.08692 37.9343 6.15431 33.6159 9.26077 29.252Z" fill="#701084"/>
<path d="M29.078 10.6039C28.7263 11.4636 28.4593 12.3234 28.049 13.105C27.2349 14.6487 25.6263 15.4042 23.9787 14.9418C23.3665 14.7659 22.8064 14.2709 22.318 13.815C21.9989 13.5153 21.8556 13.0268 21.6277 12.6295C21.1978 11.8805 21.2239 10.9556 20.3708 10.3368C19.8628 9.97206 19.6869 9.0667 19.4981 8.36326C19.3027 7.66633 19.6609 7.25599 20.3903 7.14526C22.0966 6.87821 22.5134 6.66978 23.5684 5.54297C24.1154 5.95331 24.6299 6.40925 25.2095 6.76748C26.5576 7.61422 28.0294 7.84219 29.5924 7.49698C30.5498 7.28204 31.0252 7.77706 30.7582 8.72149C30.667 9.04716 30.5237 9.37283 30.3674 9.67245C29.9571 10.441 29.8008 10.5387 29.078 10.6039Z" fill="#701084"/>
<path d="M23.2686 4.30559C22.8127 6.08374 21.3474 6.12934 19.9667 6.37033C19.4067 3.54353 20.2989 1.583 22.6369 0.436648C24.6297 -0.540358 28.1399 0.1696 29.4685 1.95426C29.9178 2.56001 30.0611 3.41326 30.263 4.18184C30.3672 4.57264 30.289 5.00904 30.289 5.42589C30.289 6.56573 30.2044 6.65041 29.0517 6.76765C27.0719 6.96956 25.4372 6.24658 24.0501 4.89179C23.8352 4.68988 23.731 4.38375 23.5747 4.12322C23.4705 4.18184 23.3663 4.24697 23.2686 4.30559Z" fill="#701084"/>
<path d="M3.29492 54.6865C3.62055 54.0416 3.88105 53.3577 4.29133 52.7715C5.16401 51.521 6.11483 50.3225 7.03961 49.1175C7.88623 48.0103 8.9673 47.8344 10.133 48.5834C11.403 49.4041 12.3538 50.798 10.9211 52.5305C9.91813 53.7355 9.03894 55.0447 8.10114 56.3083C7.31964 57.3635 6.27113 57.6956 5.05981 57.2788C4.03735 56.9271 3.45773 56.0152 3.46425 54.7777C3.40563 54.7451 3.35353 54.719 3.29492 54.6865Z" fill="#701084"/>
<path d="M14.0545 51.5732C15.7478 51.5798 16.8158 53.6836 15.8585 55.2403C15.3505 56.061 14.6927 56.7905 14.1131 57.5655C13.4554 58.4514 12.7976 59.3437 12.1594 60.2491C11.5211 61.1544 10.5247 61.5257 9.63904 61.1479C8.75334 60.7701 8.08255 59.5261 8.31049 58.5621C8.41469 58.1257 8.61006 57.6828 8.87056 57.3115C10.0428 55.6506 11.2476 54.0158 12.4459 52.3744C12.8432 51.8208 13.3902 51.5798 14.0545 51.5732Z" fill="#701084"/>
<path d="M19.9352 57.6762C19.7724 58.0736 19.6747 58.5165 19.4337 58.8682C18.535 60.1839 17.6102 61.4866 16.6659 62.7632C15.9821 63.6946 14.875 63.8314 13.9893 63.154C13.0775 62.4571 12.8496 61.2977 13.4943 60.4184C14.4712 59.0766 15.4611 57.7414 16.4706 56.4192C17.0306 55.6831 17.76 55.4812 18.548 55.7808C19.3295 56.0739 19.8701 56.8425 19.9352 57.6762Z" fill="#701084"/>
<path d="M23.2749 61.7472C23.1316 62.1575 23.047 62.6004 22.8321 62.9652C22.3827 63.7468 21.8943 64.5023 21.3667 65.2318C20.7936 66.0265 19.8819 66.2023 19.0288 65.7594C18.0975 65.2709 17.4788 64.1506 17.9216 63.356C18.5599 62.1966 19.3348 61.0828 20.188 60.0667C20.6439 59.5261 21.4188 59.6434 22.0636 59.956C22.7669 60.2882 23.2033 60.9786 23.2749 61.7472Z" fill="#701084"/>
<path d="M24.7011 24.2884C24.2126 23.6892 23.7958 23.2332 23.4507 22.7187C23.3139 22.5168 23.2944 22.1911 23.3204 21.9371C23.5484 19.9896 23.7893 18.0421 24.0694 16.1011C24.0954 15.8992 24.408 15.593 24.5904 15.5865C24.9225 15.58 25.3654 15.5019 25.4305 16.1271C25.6519 18.1007 25.945 20.0612 26.199 22.0283C26.2185 22.1976 26.225 22.4321 26.1273 22.5493C25.704 23.116 25.2351 23.6436 24.7011 24.2884Z" fill="#701084"/>
</svg>
