<svg width="64" height="64" viewBox="0 0 64 64" fill="none" xmlns="http://www.w3.org/2000/svg">
<path d="M63.5755 26.2409C63.1055 27.3009 62.2955 27.6209 61.1555 27.6109C56.4955 27.5709 51.8255 27.5909 47.1655 27.5909C45.7955 27.5909 45.0455 26.8709 45.0855 25.5109C45.1255 24.0409 45.1155 22.5509 45.3555 21.1009C45.6755 19.2309 46.7155 17.7009 48.1555 16.3809C49.8655 18.0509 51.9155 18.9509 54.2855 18.9609C56.6655 18.9609 58.7155 18.0809 60.4555 16.3809C62.0455 17.8309 63.0255 19.5809 63.4155 21.6609C63.4455 21.7909 63.5055 21.9209 63.5455 22.0509C63.5755 23.4409 63.5755 24.8409 63.5755 26.2409Z" fill="#701084"/>
<path d="M32.8756 0.230469C33.2356 0.360469 33.6056 0.470469 33.9556 0.620469C36.1856 1.59047 37.3656 3.97047 36.8056 6.35047C36.2456 8.69047 34.0556 10.2505 31.5456 10.0805C29.3256 9.93047 27.3356 8.00047 27.0956 5.75047C26.8256 3.31047 28.3356 1.07047 30.6956 0.390469C30.8456 0.350469 30.9956 0.280469 31.1456 0.230469C31.7256 0.230469 32.2956 0.230469 32.8756 0.230469Z" fill="#701084"/>
<path d="M14.1351 41.1807C17.4551 41.1807 20.6851 41.1807 23.9951 41.1807C23.9951 42.5807 23.9851 43.9507 23.9951 45.3207C24.0151 47.7707 24.8751 49.8707 26.7451 51.4707C29.1251 53.5107 31.8651 54.0507 34.7951 52.9507C37.7151 51.8607 39.4951 49.6807 39.8951 46.5707C40.0851 45.1107 39.9951 43.6207 40.0251 42.1407C40.0351 41.8407 40.0251 41.5307 40.0251 41.1907C43.3151 41.1907 46.5451 41.1907 49.7951 41.1907C49.8151 41.2107 49.8651 41.2407 49.8551 41.2707C49.8451 44.1007 50.0451 46.9307 49.3851 49.7307C47.805 56.4907 41.8351 61.9907 34.9851 63.1107C25.6551 64.6307 16.9851 58.7807 14.6951 49.9907C14.2451 48.2507 14.0851 46.4807 14.1251 44.6807C14.1551 43.5407 14.1351 42.3907 14.1351 41.1807Z" fill="#701084"/>
<path d="M38.1552 11.2002C39.7652 12.6702 40.8152 14.4102 41.0952 16.5102C41.2752 17.9002 41.2452 19.3302 41.2352 20.7502C41.2252 21.6602 40.4152 22.4102 39.4952 22.4102C34.5052 22.4202 29.5152 22.4202 24.5252 22.4102C23.6752 22.4102 22.8452 21.7502 22.8152 20.9202C22.7452 18.8202 22.5652 16.6902 23.4152 14.6602C23.9752 13.3402 24.7452 12.1802 25.8652 11.2002C27.5852 12.8902 29.6352 13.7802 32.0152 13.7702C34.3752 13.7802 36.4152 12.9002 38.1552 11.2002Z" fill="#701084"/>
<path d="M15.8658 16.3809C17.7158 18.1209 18.7658 20.1909 18.9258 22.6809C18.9858 23.7009 18.9558 24.7309 18.9358 25.7609C18.9258 26.8109 18.1458 27.5909 17.0958 27.5909C12.1658 27.6009 7.23576 27.6009 2.30576 27.5909C1.37576 27.5909 0.515758 26.9509 0.485758 26.0809C0.425758 24.1009 0.245758 22.0909 0.975758 20.1709C1.52576 18.7109 2.35576 17.4409 3.52576 16.4009C7.18576 19.9009 12.4558 19.7009 15.8658 16.3809Z" fill="#701084"/>
<path d="M14.6254 10.3602C14.6154 13.0902 12.4154 15.2702 9.67543 15.2602C6.94543 15.2502 4.76542 13.0502 4.77542 10.3102C4.78542 7.58019 6.97543 5.40019 9.72543 5.41019C12.4554 5.42019 14.6254 7.61019 14.6254 10.3602Z" fill="#701084"/>
<path d="M54.3265 5.41016C57.0665 5.41016 59.2565 7.60016 59.2465 10.3402C59.2465 13.0802 57.0565 15.2702 54.3165 15.2602C51.5765 15.2602 49.3865 13.0702 49.3965 10.3302C49.3965 7.59016 51.5865 5.41016 54.3265 5.41016Z" fill="#701084"/>
<path d="M23.9967 37.4401C20.6867 37.4401 17.4667 37.4401 14.1767 37.4401C14.1667 37.2701 14.1367 37.0901 14.1367 36.9201C14.1367 35.3001 14.1367 33.6801 14.1367 32.0501C14.1367 30.8101 14.8867 30.0701 16.1267 30.0601C18.0967 30.0601 20.0667 30.0501 22.0367 30.0601C23.2067 30.0601 23.9767 30.8101 23.9867 31.9701C24.0067 33.7701 23.9967 35.5801 23.9967 37.4401Z" fill="#701084"/>
<path d="M40.0261 37.4104C40.0261 35.5004 40.0061 33.6304 40.0361 31.7704C40.0461 30.8604 40.8361 30.0904 41.7461 30.0804C43.8861 30.0604 46.0161 30.0604 48.1561 30.0804C49.0761 30.0904 49.8561 30.8604 49.8761 31.7704C49.9061 33.6404 49.8861 35.5004 49.8861 37.4204C46.6061 37.4104 43.3561 37.4104 40.0261 37.4104Z" fill="#701084"/>
</svg>
