<svg width="63" height="67" viewBox="0 0 63 67" fill="none" xmlns="http://www.w3.org/2000/svg">
<path d="M24.1133 17.3952C24.1133 11.8809 24.1133 6.36669 24.1133 0.844816C24.3628 0.333815 24.7107 0.00585938 25.3232 0.00585938C37.3614 0.0134863 49.3996 0.013485 61.4378 0.013485C62.1712 0.013485 62.6325 0.478727 62.6325 1.21854C62.6325 6.48109 62.6325 11.7436 62.6325 17.0062C62.6325 17.7689 62.1712 18.2265 61.4151 18.2265C60.2733 18.2265 59.1314 18.2341 57.9896 18.2189C57.7779 18.2189 57.5435 18.1579 57.3469 18.0663C53.687 16.274 50.0272 14.4817 46.39 12.6589C45.1423 12.0335 43.9476 12.003 42.7528 12.7275C42.8436 12.6207 42.9192 12.5063 43.0175 12.4148C45.165 10.3403 44.7945 6.8243 42.2689 5.24554C41.1271 4.53624 39.8718 4.49047 38.6015 4.60487C38.0419 4.65826 37.6638 5.13876 37.6638 5.7184C37.6563 7.99121 37.6487 10.2717 37.6638 12.5445C37.6638 13.1546 38.1175 13.6427 38.7225 13.6732C39.282 13.7038 39.8491 13.6732 40.4087 13.6427C41.1649 13.6046 41.8227 13.2538 42.4806 12.9182C42.4428 12.9639 42.4126 13.0173 42.3672 13.0631C41.3312 14.0393 41.0363 15.2215 41.3842 16.5791C41.5203 17.1206 41.6564 17.6621 41.8001 18.2341C41.6035 18.2341 41.4522 18.2341 41.301 18.2341C36.0532 18.2341 30.8054 18.2265 25.55 18.2418C24.8694 18.2418 24.3931 18.0206 24.1133 17.3952ZM33.1419 11.4157C33.1419 11.8123 33.1268 12.1708 33.1419 12.5216C33.1646 13.0173 33.399 13.3911 33.8603 13.5817C34.6165 13.8944 35.3878 13.33 35.3953 12.4606C35.4029 10.9657 35.4029 9.47846 35.3953 7.98359C35.3953 7.70902 35.3499 7.42682 35.2819 7.15988C34.866 5.5201 33.3007 4.39132 31.7203 4.58199C29.9282 4.79555 28.6579 6.16839 28.6276 7.96071C28.6049 9.45558 28.62 10.9428 28.62 12.4377C28.62 13.1394 29.104 13.658 29.7316 13.6732C30.3744 13.6885 30.8659 13.1546 30.8734 12.4301C30.881 12.0945 30.8734 11.7589 30.8734 11.4157C31.6598 11.4157 32.3782 11.4157 33.1419 11.4157ZM52.3335 5.70315C50.8514 5.70315 49.3769 5.69552 47.8948 5.70315C47.2067 5.70315 46.6849 6.20652 46.6849 6.83955C46.6849 7.45733 47.1991 7.97596 47.857 7.97596C50.8363 7.98359 53.8231 7.99122 56.8024 7.96071C57.0822 7.96071 57.4074 7.79292 57.6342 7.60987C57.9896 7.32768 58.0577 6.80904 57.8686 6.39719C57.6493 5.92433 57.2713 5.70315 56.7571 5.70315C55.2901 5.70315 53.808 5.70315 52.3335 5.70315ZM52.3108 12.5368C53.8005 12.5368 55.2901 12.5445 56.7873 12.5368C57.4527 12.5292 57.9594 12.0411 57.9821 11.4233C57.9972 10.8132 57.483 10.2717 56.8327 10.264C53.8383 10.2564 50.8438 10.2564 47.8494 10.264C47.3503 10.264 46.9344 10.5691 46.7756 11.0115C46.4959 11.7818 47.0479 12.5368 47.925 12.5368C49.3769 12.5445 50.8438 12.5368 52.3108 12.5368Z" fill="#701084"/>
<path d="M24.1133 24.238C24.1133 23.0845 24.1133 21.9309 24.1133 20.7757C24.3945 20.6433 24.8732 20.5986 25.5572 20.5986C29.1747 20.6034 32.7845 20.6002 36.402 20.6002C37.2987 20.6002 37.7243 20.6896 37.7243 20.8747C37.7243 21.9612 37.7243 23.0478 37.7243 24.1359C37.7243 24.321 37.2987 24.4103 36.402 24.4103C32.7845 24.4103 29.1747 24.4071 25.5572 24.4119C24.8732 24.4151 24.3945 24.3688 24.1133 24.238Z" fill="#701084"/>
<path d="M60.0986 20.506C60.6355 20.506 61.1346 20.4907 61.6337 20.5136C62.1554 20.5365 62.594 20.9941 62.6394 21.528C62.6469 21.6271 62.6469 21.7339 62.6469 21.833C62.6469 27.0193 62.6469 32.2056 62.6469 37.3919C62.6469 38.3071 62.231 38.7266 61.3161 38.7266C54.6316 38.7266 47.947 38.7266 41.2701 38.7266C40.3324 38.7266 39.9316 38.3148 39.9316 37.3614C39.9316 32.198 39.9316 27.0422 39.9316 21.8788C39.9316 20.9102 40.3324 20.5136 41.3079 20.5136C41.6557 20.5136 42.0111 20.5136 42.3892 20.5136C42.6463 21.5051 42.9034 22.4889 43.1529 23.4804C43.6898 25.5931 44.2191 27.7057 44.756 29.8184C45.3761 32.2437 47.8185 33.2505 49.9509 31.9539C50.0038 31.9234 50.0567 31.8929 50.0719 31.8929C50.3592 32.1598 50.6087 32.4268 50.8885 32.6556C52.0606 33.5937 53.7544 33.67 54.934 32.7319C56.3934 31.5802 57.8226 30.3752 59.1988 29.1243C60.4843 27.9574 60.5902 26.0049 59.5466 24.6169C59.4408 24.4796 59.3274 24.3423 59.1988 24.1745C60.1894 23.1525 60.4919 21.9398 60.0986 20.506Z" fill="#701084"/>
<path d="M56.0389 23.8929C56.5531 24.5183 57.0748 25.1513 57.5966 25.7767C58.1789 26.4784 58.1335 27.0809 57.4378 27.6758C56.2128 28.7207 54.9803 29.7579 53.7477 30.7952C53.1806 31.2757 52.5454 31.2223 52.0539 30.6503C51.5019 30.002 50.9574 29.3308 50.3903 28.6444C49.8686 29.0868 49.3619 29.5062 48.8553 29.941C48.447 30.2842 48.0084 30.3605 47.532 30.124C47.1917 29.9562 47.0178 29.6512 46.9271 29.2927C45.8004 24.8615 44.6737 20.4302 43.5394 15.999C43.4109 15.488 43.4865 15.038 43.9024 14.7024C44.3183 14.3592 44.7644 14.3821 45.2333 14.6109C49.2334 16.5863 53.2335 18.554 57.2336 20.5294C58.194 21.0023 58.3074 21.9175 57.4983 22.6192C57.0295 23.0234 56.5607 23.42 56.0918 23.8166C56.0767 23.8318 56.0691 23.8623 56.0389 23.8929Z" fill="#701084"/>
<path d="M33.1126 9.11281C32.3716 9.11281 31.6608 9.11281 30.9122 9.11281C30.9122 8.64757 30.8593 8.18233 30.9273 7.73234C31.0105 7.16032 31.5701 6.79424 32.1523 6.85525C32.7043 6.90864 33.1353 7.3815 33.1504 7.95352C33.158 8.29673 33.1504 8.63232 33.1504 8.97553C33.1429 9.00604 33.1278 9.04417 33.1126 9.11281Z" fill="#701084"/>
<path d="M39.9316 11.4004C39.9316 9.85973 39.9316 8.38011 39.9316 6.85474C40.6954 6.85474 41.2927 7.16743 41.7238 7.76233C42.2758 8.52502 42.3438 9.35635 41.9052 10.1877C41.5045 10.958 40.839 11.3546 39.9316 11.4004Z" fill="#701084"/>
<path d="M19.9012 28.2246C25.1944 28.2246 30.4876 28.2246 35.7808 28.2246C37.7468 28.2246 39.055 29.5441 39.055 31.5271C39.055 42.2276 39.055 52.9281 39.055 63.6363C39.055 65.6193 37.7468 66.9387 35.7808 66.9387C25.1717 66.9387 14.5551 66.9387 3.94609 66.9387C1.98005 66.9387 0.671875 65.6193 0.671875 63.6363C0.671875 52.9357 0.671875 42.2352 0.671875 31.5271C0.671875 29.5441 1.98005 28.2246 3.94609 28.2246C9.26951 28.2246 14.5854 28.2246 19.9012 28.2246ZM35.4405 38.3379C25.0281 38.3379 14.661 38.3379 4.28636 38.3379C4.28636 46.6664 4.28636 54.9721 4.28636 63.2778C14.6837 63.2778 25.0583 63.2778 35.4405 63.2778C35.4405 54.9492 35.4405 46.6588 35.4405 38.3379ZM1.87419 34.6541C13.8897 34.6541 25.8598 34.6541 37.8224 34.6541C37.8375 34.6007 37.8451 34.5778 37.8451 34.5549C37.8451 33.5939 37.8527 32.633 37.8527 31.672C37.8527 30.1923 37.1041 29.4373 35.6295 29.4373C25.1188 29.4373 14.6081 29.4373 4.08976 29.4373C3.96121 29.4373 3.84022 29.4373 3.71167 29.4373C2.71353 29.4907 1.91955 30.2457 1.88174 31.2525C1.84393 32.3813 1.87419 33.5024 1.87419 34.6541Z" fill="#701084"/>
<path d="M24.2259 39.2227C27.2733 39.2227 30.3207 39.2227 33.368 39.2227C34.2905 39.2227 34.5854 39.5201 34.5854 40.443C34.5854 42.5022 34.5854 44.5691 34.5854 46.6284C34.5854 47.5283 34.2754 47.841 33.3907 47.841C27.2733 47.841 21.1559 47.841 15.0309 47.841C14.1387 47.841 13.8438 47.536 13.8438 46.6284C13.8438 44.5157 13.8438 42.4031 13.8438 40.2904C13.8438 39.5582 14.1765 39.2227 14.8948 39.2227C18.0027 39.2227 21.1181 39.2227 24.2259 39.2227Z" fill="#701084"/>
<path d="M12.6947 46.5519C12.6947 48.6035 12.6947 50.6476 12.6947 52.6992C12.6947 53.5915 12.3847 53.9042 11.4924 53.9042C9.76081 53.9042 8.02919 53.9042 6.29756 53.9042C5.45821 53.9042 5.14062 53.5839 5.14062 52.7297C5.14062 48.6188 5.14062 44.5079 5.14062 40.397C5.14062 39.5199 5.45065 39.2148 6.32025 39.2148C8.06699 39.2148 9.80618 39.2148 11.5529 39.2148C12.3696 39.2148 12.6947 39.5428 12.6947 40.3589C12.6947 42.4334 12.6947 44.4927 12.6947 46.5519Z" fill="#701084"/>
<path d="M20.6117 55.5664C22.4643 55.5664 24.3245 55.5664 26.1771 55.5664C27.0165 55.5664 27.3416 55.8867 27.3492 56.7333C27.3492 58.2511 27.3567 59.7688 27.3492 61.2866C27.3492 62.1103 27.024 62.4306 26.1998 62.4306C22.4643 62.4306 18.7288 62.4306 14.9934 62.4306C14.1692 62.4306 13.8516 62.1027 13.8516 61.2866C13.8516 59.7459 13.8516 58.1977 13.8516 56.6571C13.8516 55.9249 14.1994 55.574 14.9404 55.5664C16.8233 55.5664 18.7213 55.5664 20.6117 55.5664Z" fill="#701084"/>
<path d="M28.7487 49.8701C30.4123 49.8701 32.0834 49.8701 33.747 49.8701C34.3746 49.8701 34.5788 50.076 34.5863 50.7091C34.5939 51.5023 34.5939 52.3031 34.5863 53.0963C34.5788 53.7064 34.3822 53.9124 33.7697 53.9124C30.4123 53.9124 27.0473 53.9124 23.69 53.9124C23.0699 53.9124 22.8809 53.7141 22.8809 53.0963C22.8809 52.2726 22.8809 51.4565 22.8809 50.6328C22.8809 50.0989 23.1001 49.8701 23.637 49.8701C25.3384 49.8701 27.0398 49.8701 28.7487 49.8701Z" fill="#701084"/>
<path d="M30.1624 59.8145C29.9809 59.9366 29.8448 60.0586 29.686 60.1272C29.1945 60.3484 28.635 60.0433 28.5518 59.4866C28.4157 58.5637 28.3022 57.6332 28.2115 56.7104C28.1586 56.1384 28.582 55.7341 29.1416 55.7952C29.9961 55.8943 30.8581 56.0011 31.7126 56.1307C32.5897 56.268 32.8241 56.9392 32.2646 57.6332C32.2419 57.6637 32.2268 57.6942 32.1814 57.7705C32.688 58.2663 33.2022 58.7696 33.7013 59.273C34.2533 59.8298 34.2533 60.2798 33.7013 60.8365C33.4971 61.0424 33.3005 61.2484 33.0888 61.4543C32.6578 61.8585 32.1814 61.8662 31.7579 61.4467C31.2135 60.9128 30.6917 60.356 30.1624 59.8145Z" fill="#701084"/>
<path d="M8.89116 56.8106C8.02913 56.8106 7.15953 56.8182 6.2975 56.8029C5.7455 56.7953 5.41278 56.3453 5.66232 55.9411C5.77574 55.758 6.04797 55.5826 6.25969 55.5826C8.03669 55.5521 9.81369 55.5597 11.5907 55.5674C11.9688 55.5674 12.2334 55.8343 12.2485 56.1623C12.2637 56.5055 11.999 56.7877 11.5982 56.7953C10.6984 56.8182 9.791 56.8029 8.89116 56.8106Z" fill="#701084"/>
<path d="M17.186 49.869C18.0102 49.869 18.842 49.869 19.6662 49.869C19.8175 49.869 19.9687 49.8842 20.1048 49.93C20.3922 50.0367 20.5056 50.2656 20.4753 50.563C20.4451 50.8452 20.2787 51.0282 19.999 51.074C19.8553 51.0969 19.6965 51.0969 19.5528 51.0969C17.9573 51.0969 16.3694 51.0969 14.7738 51.0969C14.6982 51.0969 14.6226 51.0969 14.547 51.0969C14.1008 51.0816 13.8438 50.8528 13.8438 50.4791C13.8438 50.113 14.116 49.869 14.5546 49.8613C15.4317 49.8613 16.3089 49.869 17.186 49.869Z" fill="#701084"/>
<path d="M17.1938 53.9124C16.3167 53.9124 15.4395 53.92 14.5624 53.9124C14.1087 53.9047 13.8516 53.6759 13.8516 53.3022C13.8516 52.959 14.1011 52.6844 14.4792 52.6844C16.2713 52.6768 18.0634 52.6768 19.8631 52.6844C20.2487 52.6844 20.4907 52.9514 20.4983 53.2946C20.4983 53.6607 20.2563 53.9047 19.8329 53.9047C18.9481 53.92 18.071 53.9124 17.1938 53.9124Z" fill="#701084"/>
<path d="M29.3069 32.6934C27.5526 32.6934 25.7982 32.6934 24.0439 32.6934C23.5146 32.6934 23.1592 32.3502 23.3104 31.9459C23.3861 31.7553 23.6054 31.6104 23.7868 31.4883C23.8776 31.4273 24.0288 31.4578 24.1574 31.4578C27.6131 31.4578 31.0763 31.4578 34.532 31.4578C34.6303 31.4578 34.7362 31.4578 34.8345 31.4654C35.1596 31.5036 35.3638 31.6866 35.3865 32.0298C35.4091 32.373 35.2277 32.579 34.9101 32.6629C34.7815 32.6934 34.6378 32.6934 34.5017 32.6934C32.7626 32.6934 31.0385 32.6934 29.3069 32.6934Z" fill="#701084"/>
<path d="M11.3945 30.543C12.2187 30.543 12.8992 31.2294 12.8992 32.0683C12.8992 32.8997 12.2187 33.5937 11.3945 33.6014C10.5702 33.609 9.85187 32.8844 9.85943 32.0531C9.87456 31.2218 10.5627 30.543 11.3945 30.543Z" fill="#701084"/>
<path d="M9.5799 32.0839C9.57233 32.9228 8.89178 33.6092 8.06756 33.6016C7.23577 33.6016 6.53254 32.8694 6.55522 32.0381C6.57791 31.2068 7.27359 30.528 8.09025 30.5432C8.92203 30.5585 9.58746 31.2449 9.5799 32.0839Z" fill="#701084"/>
<path d="M6.26106 32.0607C6.26862 32.8997 5.60319 33.5861 4.77141 33.6014C3.94718 33.6166 3.22883 32.8997 3.23639 32.0607C3.24395 31.2294 3.9245 30.5506 4.74872 30.543C5.58051 30.543 6.2535 31.2141 6.26106 32.0607Z" fill="#701084"/>
</svg>
