<svg width="58" height="57" viewBox="0 0 58 57" fill="none" xmlns="http://www.w3.org/2000/svg">
<path d="M17.3679 35.569C15.3079 32.899 13.9679 30.009 13.2379 26.769C10.1779 27.509 7.36789 26.999 4.83789 25.129C3.16789 23.889 2.02789 22.259 1.40789 20.279C0.167894 16.359 1.54789 12.109 4.85789 9.60899C8.04789 7.20899 12.7379 6.79899 16.6379 9.70899C16.9279 9.33899 17.2179 8.95899 17.5179 8.58899C21.0179 4.27899 25.4979 1.62899 30.9879 0.748988C42.3379 -1.07101 52.9779 5.98899 55.5679 17.159C57.1279 23.869 55.7579 30.049 51.5679 35.559C51.2979 35.909 51.2879 36.179 51.4779 36.549C52.1079 37.799 53.4979 38.419 54.8879 38.059C55.6179 37.869 55.7379 37.899 56.0579 38.589C56.3779 39.289 56.6479 40.019 56.9379 40.739C57.1379 41.239 56.9679 41.549 56.4979 41.819C54.9279 42.709 54.4579 44.629 55.4779 46.049C55.7579 46.439 56.1779 46.749 56.5879 47.019C56.9679 47.279 57.1279 47.549 56.9579 47.989C56.6579 48.739 56.3579 49.489 56.0579 50.249C55.8479 50.769 55.4979 50.899 54.9479 50.749C53.2479 50.289 51.6279 51.239 51.2679 52.929C51.1579 53.429 51.2379 53.999 51.3379 54.509C51.4279 54.949 51.3579 55.249 50.9579 55.419C50.1479 55.769 49.3279 56.099 48.5079 56.419C48.0979 56.589 47.8179 56.419 47.5879 56.049C46.2679 53.859 43.6279 53.849 42.3079 56.049C42.0579 56.459 41.7579 56.569 41.3379 56.409C40.5879 56.109 39.8379 55.799 39.0779 55.499C38.5379 55.289 38.4379 54.929 38.5879 54.389C39.0379 52.689 38.1379 51.099 36.4679 50.719C35.9679 50.609 35.4079 50.669 34.8879 50.759C34.3879 50.849 34.0579 50.769 33.8679 50.279C33.5679 49.529 33.2479 48.779 32.9479 48.029C32.7579 47.559 32.9079 47.239 33.3579 46.989C34.5579 46.309 35.0779 45.179 34.8279 43.899C29.7579 43.939 25.1879 42.419 21.0879 39.289C20.6979 39.699 20.2979 40.079 19.9379 40.499C19.8379 40.619 19.7979 40.839 19.8279 40.999C19.9679 41.829 19.7479 42.549 19.1579 43.129C15.2179 47.079 11.2679 51.039 7.30789 54.969C6.35789 55.919 4.92789 55.919 3.94789 55.009C3.14789 54.269 2.37789 53.499 1.63789 52.699C0.707894 51.699 0.727894 50.269 1.69789 49.299C5.60789 45.369 9.53789 41.449 13.4579 37.529C14.0579 36.929 14.7979 36.719 15.6379 36.799C15.8379 36.819 16.0879 36.739 16.2479 36.609C16.6179 36.299 16.9679 35.939 17.3679 35.569ZM24.3479 19.549C24.0879 19.769 23.8079 19.949 23.6179 20.179C22.8579 21.119 21.8779 21.429 20.7279 21.239C19.9379 21.109 19.4179 21.339 19.1379 22.149C18.9779 22.599 18.5779 22.959 18.6879 23.519C18.8579 24.349 18.9279 25.199 19.1279 26.019C20.7179 32.549 26.3979 37.369 33.0979 37.909C33.6779 37.959 34.2879 37.899 34.8479 38.029C37.3179 38.609 39.1579 36.779 38.5579 34.309C38.4379 33.839 38.5479 33.519 39.0079 33.329C39.7579 33.029 40.5079 32.709 41.2579 32.409C41.7379 32.209 42.0979 32.319 42.3479 32.819C42.6879 33.509 43.2679 33.949 43.9879 34.229C44.3479 34.369 44.6179 34.339 44.9279 34.049C49.3679 29.919 51.0879 24.859 49.9479 18.909C48.6679 12.189 42.6779 6.88899 35.9079 6.38899C31.3879 6.05899 27.3779 7.32899 23.9479 10.329C22.9179 11.229 22.0279 12.249 21.2279 13.499C21.5279 13.499 21.7179 13.499 21.9179 13.499C26.5179 13.499 31.1279 13.499 35.7279 13.509C36.0179 13.509 36.3779 13.579 36.5879 13.759C37.8279 14.749 39.0479 15.779 40.2579 16.799C40.7679 17.229 40.7579 17.539 40.2479 17.969C39.3579 18.719 38.3979 19.399 37.5779 20.219C36.7179 21.079 35.7679 21.439 34.5979 21.239C34.2579 21.179 33.8879 21.069 33.6179 20.869C33.0879 20.479 32.6179 20.009 32.0879 19.549C31.6079 19.969 31.1379 20.359 30.6979 20.769C30.3079 21.129 29.9579 21.109 29.5879 20.759C29.1479 20.349 28.6779 19.959 28.2179 19.549C27.7179 19.989 27.2579 20.379 26.8079 20.789C26.4379 21.129 26.0979 21.109 25.7379 20.779C25.2879 20.359 24.8179 19.969 24.3479 19.549ZM39.1079 17.379C38.1379 16.569 37.2279 15.789 36.2879 15.049C36.0379 14.859 35.6679 14.709 35.3579 14.709C30.1679 14.689 24.9679 14.679 19.7779 14.709C19.0879 14.709 18.7279 14.509 18.4379 13.859C16.8779 10.289 12.8379 8.20899 9.10789 8.98899C4.54789 9.94899 1.71789 13.869 2.23789 18.509C2.69789 22.549 6.33789 25.839 10.4379 25.909C13.9679 25.969 17.0879 23.979 18.5179 20.729C18.7179 20.269 18.9779 20.019 19.5079 20.029C20.3179 20.049 21.2079 20.229 21.9279 19.959C22.6379 19.689 23.1879 18.969 23.7879 18.419C24.1779 18.069 24.5179 18.069 24.8979 18.429C25.3379 18.839 25.8079 19.229 26.2779 19.649C26.7579 19.229 27.2179 18.859 27.6379 18.449C28.0379 18.059 28.3979 18.069 28.7879 18.449C29.2279 18.859 29.6879 19.249 30.1479 19.659C30.6579 19.209 31.1179 18.819 31.5679 18.399C31.9179 18.079 32.2379 18.069 32.5879 18.389C33.1179 18.869 33.6579 19.349 34.2079 19.819C34.5479 20.109 35.7479 20.149 36.0879 19.879C37.0679 19.079 38.0479 18.259 39.1079 17.379ZM48.4779 55.189C48.7779 55.079 49.0379 54.989 49.2879 54.889C49.5579 54.779 49.8079 54.649 50.0579 54.529C49.5379 52.009 51.2879 48.999 55.1079 49.489C55.3079 48.979 55.5179 48.459 55.7179 47.959C53.0579 45.829 53.0679 43.259 55.7279 40.789C55.5179 40.299 55.3079 39.789 55.1079 39.299C51.5879 39.529 49.7379 37.679 50.0379 34.249C49.8679 34.169 49.6879 34.079 49.4979 33.999C48.6079 33.609 48.6079 33.609 47.9179 34.309C47.8579 34.379 47.7879 34.439 47.7179 34.499C45.8679 36.119 43.2379 35.899 41.6679 33.989C41.5479 33.849 41.3079 33.669 41.1679 33.709C40.6979 33.839 40.2579 34.059 39.8079 34.239C40.0579 35.799 39.7579 37.119 38.6579 38.179C37.5679 39.229 36.2379 39.499 34.7779 39.279C34.6379 39.599 34.5479 39.879 34.4079 40.139C34.1379 40.609 34.2179 40.909 34.6579 41.289C36.4679 42.819 36.5879 45.539 34.9679 47.259C34.7179 47.529 34.2979 47.789 34.2579 48.089C34.2179 48.439 34.5079 48.839 34.6579 49.209C34.6979 49.309 34.7579 49.399 34.8179 49.509C34.9379 49.489 35.0479 49.469 35.1579 49.459C37.8179 49.189 39.9279 51.059 39.8979 53.649C39.8879 54.619 39.8879 54.619 40.7779 54.949C40.8279 54.969 40.8879 54.969 40.9379 54.999C41.2579 55.179 41.4579 55.119 41.7079 54.809C42.7979 53.489 44.2079 52.959 45.9079 53.329C46.9779 53.579 47.8279 54.219 48.4779 55.189ZM51.5479 33.649C55.3179 27.679 56.2179 21.189 53.4679 14.499C50.1879 6.54899 43.9979 2.17899 35.4279 1.69899C27.9479 1.27899 21.9979 4.45899 17.6079 10.389C18.3579 11.479 19.0379 12.489 19.7679 13.559C22.3179 9.41899 25.8979 6.68899 30.6379 5.60899C35.3679 4.52899 39.8179 5.32899 43.8779 7.99899C47.0979 10.119 49.3779 13.029 50.5879 16.699C52.4079 22.259 51.5179 27.459 48.2679 32.209C49.3479 32.679 50.3979 33.139 51.5479 33.649ZM5.60789 54.609C5.98789 54.379 6.36789 54.239 6.61789 53.989C10.4879 50.149 14.3379 46.289 18.1879 42.429C18.8579 41.759 18.8479 41.079 18.1779 40.399C17.5579 39.759 16.9279 39.139 16.2979 38.519C15.5479 37.779 14.8879 37.779 14.1379 38.519C13.1279 39.519 12.1279 40.529 11.1179 41.539C8.31789 44.339 5.52789 47.129 2.72789 49.929C1.94789 50.709 1.94789 51.349 2.74789 52.149C3.35789 52.769 3.95789 53.399 4.59789 53.979C4.85789 54.229 5.22789 54.379 5.60789 54.609ZM14.4079 26.479C15.3979 31.979 19.2379 37.199 24.5779 40.169C27.5779 41.839 30.8079 42.689 34.2679 42.599C33.9879 42.269 33.6879 41.979 33.3479 41.789C32.8779 41.539 32.7779 41.199 32.9379 40.739C33.1179 40.219 33.2979 39.709 33.4579 39.249C24.5679 38.049 19.2879 33.079 17.5179 24.439C16.5179 25.089 15.4879 25.769 14.4079 26.479ZM20.0379 38.639C19.3379 37.939 18.6579 37.259 18.0279 36.619C17.7579 36.889 17.4179 37.229 17.1679 37.479C17.8279 38.139 18.5179 38.829 19.1779 39.489C19.4479 39.209 19.7779 38.889 20.0379 38.639Z" fill="#701084"/>
<path d="M11.2688 17.3787C11.2688 19.0387 9.93881 20.3687 8.27881 20.3587C6.63881 20.3487 5.28881 18.9787 5.30881 17.3487C5.32881 15.7187 6.65881 14.3987 8.27881 14.3887C9.92881 14.3787 11.2688 15.7187 11.2688 17.3787ZM8.30881 19.1587C9.29881 19.1587 10.0988 18.3487 10.0888 17.3587C10.0788 16.3687 9.26881 15.5787 8.27881 15.5887C7.29881 15.5987 6.47881 16.4187 6.48881 17.3987C6.50881 18.3787 7.31881 19.1687 8.30881 19.1587Z" fill="#701084"/>
<path d="M48.2886 44.4085C48.2786 46.2385 46.7586 47.7585 44.9286 47.7585C43.1086 47.7585 41.5686 46.2285 41.5586 44.4085C41.5486 42.5785 43.1286 41.0085 44.9586 41.0285C46.7986 41.0385 48.2986 42.5685 48.2886 44.4085ZM44.9286 46.5585C46.1386 46.5585 47.0986 45.5985 47.0986 44.3785C47.0986 43.1885 46.1486 42.2285 44.9686 42.2085C43.7686 42.1885 42.7686 43.1685 42.7586 44.3585C42.7386 45.5685 43.7286 46.5585 44.9286 46.5585Z" fill="#701084"/>
</svg>
