<svg width="49" height="59" viewBox="0 0 49 59" fill="none" xmlns="http://www.w3.org/2000/svg">
<path d="M42.9813 58.4727C30.7659 58.4727 18.5447 58.4727 6.32924 58.4727C5.74699 58.279 5.13564 58.1558 4.58833 57.8918C1.92749 56.5951 0.658203 54.4241 0.658203 51.4552C0.664026 36.8041 0.658203 22.153 0.664026 7.50776C0.664026 7.20852 0.67567 6.90341 0.69896 6.60417C0.943502 3.1893 3.79066 0.478524 7.17349 0.478524C18.83 0.472656 30.4864 0.472656 42.1371 0.472656C43.6742 0.472656 45.0425 0.988994 46.2186 1.96886C47.9362 3.40053 48.664 5.27225 48.6582 7.50189C48.6466 18.9435 48.6524 30.385 48.6524 41.8266C48.6524 45.0948 48.6582 48.3571 48.6524 51.6253C48.6466 54.3067 47.5054 56.3545 45.1764 57.6629C44.501 58.0385 43.715 58.2086 42.9813 58.4727ZM12.8271 41.5509C16.4311 44.4142 22.0206 44.9481 26.5214 41.9205C31.0803 38.8518 32.9959 33.0195 31.1618 27.8679C29.6888 23.7431 24.8795 19.7884 21.6713 20.1111C21.6713 20.3282 21.6713 20.5512 21.6713 20.7741C21.6713 24.2829 21.6538 27.7975 21.6829 31.3062C21.6946 32.245 21.4035 32.9491 20.7339 33.6063C18.0847 36.2232 15.4763 38.8812 12.8271 41.5509ZM18.0148 20.0642C14.9406 20.381 10.7776 22.6576 8.91439 27.0347C7.12691 31.2358 7.65092 35.214 10.2011 38.9985C10.3176 38.9046 10.3933 38.8518 10.4573 38.7873C12.9086 36.3229 15.3598 33.8586 17.7936 31.3766C17.9508 31.2182 18.0265 30.9131 18.0323 30.6784C18.0498 27.3222 18.0439 23.9602 18.0439 20.604C18.0381 20.4338 18.0265 20.2695 18.0148 20.0642ZM24.6349 51.8072C27.9886 51.8072 31.3423 51.8072 34.6902 51.8072C36.3554 51.8072 38.0265 51.8131 39.6917 51.8013C40.5359 51.7955 41.2637 51.1676 41.4035 50.3638C41.5549 49.5072 41.1123 48.6446 40.303 48.363C39.9595 48.2456 39.5694 48.2222 39.2026 48.2222C29.5025 48.2163 19.7965 48.2163 10.0963 48.2163C9.8518 48.2163 9.60726 48.228 9.36854 48.2574C8.80959 48.3278 8.39619 48.6329 8.12254 49.1199C7.41803 50.3579 8.27975 51.8013 9.74117 51.8072C14.7077 51.8131 19.6684 51.8072 24.6349 51.8072ZM37.8751 40.348C37.2754 40.348 36.6757 40.3304 36.076 40.3539C35.0396 40.3891 34.2885 41.1401 34.271 42.1376C34.2535 43.1468 35.0279 43.9507 36.0818 43.9741C37.2637 43.9976 38.4399 43.9976 39.6218 43.9741C40.6815 43.9507 41.4326 43.1585 41.4209 42.1317C41.4093 41.146 40.6466 40.3832 39.6102 40.3539C39.0337 40.3304 38.4515 40.348 37.8751 40.348ZM37.8634 19.8295C37.2463 19.8295 36.6291 19.8177 36.0119 19.8295C35.0396 19.8529 34.3118 20.5746 34.271 21.5428C34.2303 22.4757 34.8824 23.3323 35.8139 23.3734C37.1764 23.438 38.5447 23.438 39.9071 23.3675C40.8562 23.3206 41.4792 22.4522 41.4209 21.4665C41.3685 20.5864 40.6233 19.8588 39.7208 19.8353C39.0978 19.8177 38.4806 19.8295 37.8634 19.8295ZM37.8343 30.0565C38.4515 30.0565 39.0687 30.0682 39.6859 30.0565C40.6233 30.033 41.3744 29.3054 41.4209 28.396C41.4675 27.4102 40.8387 26.5595 39.8838 26.5125C38.5214 26.448 37.1531 26.448 35.7907 26.5184C34.8649 26.5653 34.2244 27.4278 34.2768 28.3666C34.3292 29.3054 35.0512 30.0271 35.9828 30.0506C36.6 30.0682 37.2172 30.0506 37.8343 30.0565ZM37.8343 37.3028C38.469 37.3028 39.1094 37.3204 39.7441 37.2969C40.6466 37.2676 41.3802 36.5283 41.4209 35.6423C41.4675 34.68 40.8562 33.8175 39.9362 33.7706C38.5563 33.7002 37.1648 33.7002 35.7848 33.7647C34.8591 33.8058 34.2186 34.6742 34.271 35.613C34.3234 36.5518 35.0454 37.2735 35.977 37.3028C36.6 37.3204 37.2172 37.3028 37.8343 37.3028Z" fill="#701084"/>
</svg>
