<svg width="48" height="55" viewBox="0 0 48 55" fill="none" xmlns="http://www.w3.org/2000/svg">
<path d="M5.48316 5.95877C5.48316 4.2412 5.48316 2.62909 5.48316 1.00945C5.49061 0.112998 5.60236 0 6.4889 0C17.9246 0 29.3528 0 40.781 0C41.7271 0 41.8165 0.0903986 41.8165 1.04712C41.8165 8.87413 41.8314 16.6936 41.7942 24.5206C41.7867 25.4547 41.9804 26.1629 42.7105 26.7806C43.4481 27.4058 43.4108 27.5188 42.7329 28.3324C42.8744 28.4906 43.016 28.6639 43.1724 28.8221C44.4687 30.1404 45.7948 31.421 47.0539 32.7695C48.7897 34.6227 48 37.4928 45.5937 38.1181C44.5358 38.3893 43.5673 38.1331 42.7478 37.4024C42.4721 37.1614 42.2188 36.8977 41.8612 36.5512C41.8463 36.9052 41.824 37.1463 41.824 37.3949C41.824 40.9204 41.824 44.446 41.824 47.964C41.824 48.8755 41.675 49.0337 40.781 49.0337C39.3208 49.0337 37.8532 49.0337 36.2812 49.0337C36.2812 49.6288 36.2812 50.1787 36.2812 50.7287C36.2812 51.8586 36.2589 52.9811 36.2887 54.1111C36.3036 54.7288 36.0875 55 35.4394 55C23.9143 54.9849 12.3893 54.9925 0.864194 54.9849C0.0819494 54.9849 0 54.8945 0 53.9981C0 43.6851 0 33.3646 0 23.0516C0 17.7181 0 12.3846 0 7.05109C0 6.04917 0.0819493 5.95877 1.06534 5.95877C2.50318 5.95877 3.94102 5.95877 5.48316 5.95877ZM14.2815 47.1052C14.2815 44.4083 14.2815 41.8922 14.2815 39.3234C13.9761 39.3234 13.7228 39.3234 13.4695 39.3234C12.0317 39.3234 10.5864 39.3158 9.14853 39.3234C8.71644 39.3234 8.29179 39.2405 8.29179 38.7283C8.29179 38.2009 8.73879 38.1482 9.15598 38.1482C9.22303 38.1482 9.29753 38.1482 9.36458 38.1482C11.0408 38.1482 12.7096 38.1482 14.3858 38.1482C15.3692 38.1482 15.4735 38.2537 15.4735 39.233C15.4735 41.8395 15.4735 44.446 15.4735 47.0525C15.4735 47.3011 15.4735 47.5497 15.4735 47.7982C23.9143 47.7982 32.2434 47.7982 40.5873 47.7982C40.6171 47.6777 40.6544 47.5873 40.6544 47.4969C40.6618 43.5495 40.6618 39.6021 40.6544 35.6547C40.6544 35.4965 40.6246 35.3006 40.5277 35.1952C39.7827 34.4042 39.0154 33.6283 38.2704 32.8599C37.3689 33.5831 37.3615 33.5831 36.5941 32.8071C36.1024 32.31 35.6107 31.8128 35.119 31.308C34.091 30.2685 34.091 30.2685 35.0892 29.1686C35.1339 29.1234 35.1488 29.0481 35.1563 29.033C34.6497 28.4906 34.158 27.9708 33.6812 27.451C27.5275 31.2779 20.4427 29.2891 16.822 24.4001C13.1939 19.496 13.5664 12.6106 17.7458 8.10574C21.873 3.66114 28.6823 2.84756 33.7185 6.22244C36.2514 7.91741 38.0022 10.2452 38.844 13.1907C39.9019 16.9045 39.3655 20.4301 37.4211 23.6016C37.95 24.1892 38.4268 24.724 38.9036 25.2513C40.0137 24.3398 40.0137 24.3398 40.6097 24.4227C40.6097 16.6635 40.6097 8.90426 40.6097 1.15258C29.2708 1.15258 17.9916 1.15258 6.6528 1.15258C6.6528 1.49911 6.6528 1.80044 6.6528 2.10177C6.6528 13.4468 6.70495 24.7918 6.6081 36.1368C6.5932 38.216 7.07 39.7528 8.60469 41.1615C10.5715 42.9996 12.3297 45.0411 14.2815 47.1052ZM18.61 16.8443C18.6323 21.4621 22.3051 25.1534 26.8645 25.1459C31.4388 25.1308 35.1041 21.4245 35.0818 16.8141C35.0594 12.1963 31.3643 8.46733 26.8347 8.4824C22.3051 8.49747 18.5876 12.2716 18.61 16.8443ZM40.1254 25.854C38.6727 27.323 37.2125 28.7995 35.7821 30.2459C36.3185 30.7958 36.8921 31.3758 37.436 31.9333C38.8738 30.4794 40.3266 29.0029 41.7718 27.549C41.228 26.984 40.6693 26.4039 40.1254 25.854Z" fill="#701084"/>
<path d="M23.6162 33.4095C21.2471 33.4095 18.8855 33.4095 16.5164 33.4095C16.3078 33.4095 16.0545 33.4622 15.9055 33.3643C15.7267 33.2438 15.533 32.9952 15.5256 32.7918C15.5181 32.6336 15.7565 32.4151 15.9353 32.3172C16.0769 32.2343 16.3004 32.287 16.4866 32.287C21.262 32.287 26.0449 32.287 30.8203 32.287C30.9097 32.287 31.0065 32.287 31.0959 32.287C31.4982 32.272 31.8633 32.4151 31.7664 32.852C31.7143 33.0856 31.3269 33.3492 31.0587 33.3869C30.4627 33.4698 29.8593 33.4095 29.2558 33.4095C27.3784 33.4095 25.4936 33.4095 23.6162 33.4095Z" fill="#701084"/>
<path d="M23.5713 39.3161C22.6177 39.3161 21.6716 39.3086 20.718 39.3161C20.271 39.3236 19.8761 39.2031 19.891 38.6984C19.8985 38.2162 20.3082 38.1484 20.7105 38.1484C22.6326 38.1484 24.5547 38.1484 26.4842 38.1484C26.9089 38.1484 27.3335 38.2162 27.3112 38.7586C27.2888 39.2332 26.9014 39.3161 26.4991 39.3161C25.5157 39.3086 24.5472 39.3161 23.5713 39.3161Z" fill="#701084"/>
<path d="M26.8714 9.59767C30.7901 9.6052 34.001 12.8596 34.0085 16.822C34.0159 20.792 30.7379 24.0991 26.8193 24.0765C22.8782 24.0539 19.6599 20.7544 19.6897 16.7693C19.7195 12.8144 22.9453 9.59014 26.8714 9.59767ZM27.1098 19.0669C26.0594 18.4492 25.0387 17.8541 24.0181 17.2589C23.6754 17.0631 23.288 17.0028 23.1613 17.4322C23.0943 17.6356 23.2954 18.065 23.4966 18.1931C24.5917 18.8937 25.7316 19.5264 26.8491 20.1894C27.2514 20.4304 27.6015 20.4304 27.8548 19.986C28.6817 18.517 29.5087 17.0556 30.3133 15.579C30.5666 15.1195 30.2835 14.5847 29.8663 14.6977C29.6353 14.7579 29.4193 15.0141 29.2852 15.2325C28.5476 16.4906 27.8473 17.7561 27.1098 19.0669Z" fill="#701084"/>
</svg>
