<svg width="59" height="61" viewBox="0 0 59 61" fill="none" xmlns="http://www.w3.org/2000/svg">
<path d="M43.9087 40.8306C45.6487 40.8306 47.3087 40.8306 49.0387 40.8306C49.0387 40.5706 49.0387 40.3306 49.0387 40.0906C49.0387 31.2106 49.0387 22.3306 49.0387 13.4606C49.0387 12.4906 49.1687 12.3506 50.1187 12.3506C51.3687 12.3506 52.6187 12.3506 53.8687 12.3506C54.9187 12.3506 55.0487 12.4806 55.0487 13.5006C55.0487 22.3606 55.0487 31.2206 55.0487 40.0706C55.0487 40.3106 55.0487 40.5506 55.0487 40.8506C56.0087 40.8506 56.9087 40.8406 57.7987 40.8506C58.4987 40.8606 58.9687 41.2606 58.9687 41.8406C58.9687 42.4206 58.5287 42.8306 57.8087 42.8406C51.7787 42.8506 45.7587 42.8406 39.7287 42.8406C39.6687 42.8406 39.6087 42.8206 39.5187 42.8006C39.5387 42.7206 39.5387 42.6306 39.5787 42.5706C41.5187 39.2406 40.9287 34.9106 38.1587 32.2306C38.0087 32.0806 37.8987 31.8106 37.8987 31.5906C37.8887 27.3706 37.8887 23.1406 37.8887 18.9206C37.8887 18.2106 38.0887 18.0206 38.8187 18.0106C40.1687 18.0006 41.5287 18.0006 42.8787 18.0106C43.7587 18.0106 43.9087 18.1606 43.9087 19.0606C43.9087 26.0306 43.9087 33.0006 43.9087 39.9706C43.9087 40.2406 43.9087 40.5006 43.9087 40.8306Z" fill="#701084"/>
<path d="M12.7094 60.2903C8.85941 60.2903 4.99941 60.2903 1.14941 60.2903C0.0994126 60.2903 -0.130587 60.0203 0.0694126 59.0003C1.10941 53.6403 5.88941 49.4003 11.3194 48.8303C17.8394 48.1403 23.9494 52.5103 25.3294 58.9303C25.5594 59.9903 25.3394 60.2903 24.2694 60.2903C20.4094 60.2903 16.5594 60.2903 12.7094 60.2903Z" fill="#701084"/>
<path d="M22.5488 50.4605C23.7588 49.0605 25.2088 48.0005 26.8888 47.2405C34.4988 43.8105 43.2188 48.2905 44.9088 56.4905C45.0588 57.2405 44.7888 57.6005 44.0388 57.6005C38.4988 57.6105 32.9688 57.6105 27.4288 57.5905C27.2588 57.5905 26.9888 57.4505 26.9288 57.3005C25.3188 53.5505 25.3188 53.5505 22.5488 50.4605Z" fill="#701084"/>
<path d="M12.6897 47.5201C9.07969 47.5001 6.17969 44.5901 6.17969 40.9901C6.18969 37.3601 9.12969 34.4401 12.7597 34.4601C16.3297 34.4801 19.2597 37.4501 19.2497 41.0301C19.2297 44.6101 16.2697 47.5401 12.6897 47.5201Z" fill="#701084"/>
<path d="M32.2195 44.8803C28.6495 44.8603 25.6895 41.8903 25.6895 38.3303C25.6895 34.7703 28.6595 31.7903 32.2295 31.7803C35.8095 31.7703 38.8295 34.8003 38.7895 38.3603C38.7395 41.9403 35.7795 44.8903 32.2195 44.8803Z" fill="#701084"/>
<path d="M52.2091 2.22027C51.4991 2.22027 50.9691 2.21027 50.4491 2.22027C49.7091 2.23027 49.2791 1.90027 49.2591 1.28027C49.2391 0.660272 49.6491 0.270272 50.3591 0.230272C51.8291 0.160272 53.2991 0.0602722 54.7791 0.000272155C55.7491 -0.0397278 56.1391 0.460272 55.9791 1.44027C55.7791 2.71027 55.6091 3.99027 55.4191 5.27027C55.3891 5.49027 55.3591 5.72027 55.2991 5.94027C55.1691 6.47027 54.7191 6.81027 54.2291 6.74027C53.6991 6.67027 53.3091 6.23027 53.3491 5.66027C53.3991 5.03027 53.5091 4.41027 53.6191 3.63027C52.9491 4.19027 52.3991 4.66027 51.8391 5.13027C43.4091 12.2503 34.0691 17.9103 23.9391 22.2503C21.1391 23.4503 18.2691 24.4803 15.4391 25.5803C14.9291 25.7803 14.5091 25.6603 14.1891 25.2303C13.9191 24.8603 13.9191 24.4403 14.2191 24.0903C14.3991 23.8903 14.6691 23.7503 14.9291 23.6403C18.6991 22.1003 22.5291 20.7103 26.2191 19.0203C35.5291 14.7603 44.0591 9.26027 51.7991 2.54027C51.8991 2.47027 51.9991 2.40027 52.2091 2.22027Z" fill="#701084"/>
<path d="M21.659 40.84C22.509 40.84 23.279 40.84 24.069 40.84C24.369 41.49 24.659 42.12 24.969 42.8C23.649 42.8 22.359 42.8 21.019 42.8C21.269 41.47 21.269 40.16 20.909 38.86C20.179 36.23 18.559 34.36 16.089 33.23C15.739 33.07 15.579 32.89 15.609 32.51C15.639 32.1 15.609 31.69 15.619 31.28C15.629 30.53 15.789 30.37 16.519 30.36C17.909 30.35 19.309 30.35 20.699 30.36C21.469 30.36 21.639 30.53 21.649 31.3C21.659 32.96 21.649 34.62 21.649 36.28C21.659 37.76 21.659 39.26 21.659 40.84Z" fill="#701084"/>
<path d="M32.7795 29.8605C30.5095 29.7505 28.5795 30.4005 26.8095 31.7905C26.7895 31.5905 26.7695 31.4805 26.7695 31.3705C26.7695 29.3205 26.7695 27.2705 26.7695 25.2205C26.7695 24.5105 26.9295 24.3405 27.6295 24.3405C29.0695 24.3305 30.4995 24.3305 31.9395 24.3405C32.6095 24.3405 32.7795 24.5205 32.7895 25.1705C32.7895 26.7005 32.7795 28.2405 32.7795 29.8605Z" fill="#701084"/>
</svg>
