<svg width="72" height="71" viewBox="0 0 72 71" fill="none" xmlns="http://www.w3.org/2000/svg">
<path d="M71.1365 58.2609C70.7785 59.5834 70.5566 60.9616 70.0322 62.2131C68.1967 66.591 64.9139 69.3221 60.3352 70.4875C59.5385 70.6902 58.9485 70.3862 58.8073 69.7427C58.6762 69.1498 59.0544 68.6735 59.841 68.4607C64.7929 67.118 67.8437 63.9308 68.8774 58.8892C70.1734 52.5706 65.403 46.0342 59.0443 45.1171C52.6603 44.1949 47.063 48.4157 45.7166 54.1718C44.2239 60.5664 48.2934 67.0876 54.6874 68.4658C54.8236 68.4962 54.9597 68.5114 55.0908 68.5519C55.8069 68.7597 56.1548 69.2562 56.0086 69.8542C55.8624 70.447 55.3278 70.7358 54.5967 70.5737C49.0094 69.3221 45.409 65.9323 43.7903 60.4093C43.7398 60.237 43.6693 60.0698 43.6037 59.8772C42.6607 60.1458 41.743 60.4093 40.7597 60.693C40.7597 62.1371 40.7647 63.5812 40.7546 65.0253C40.7496 65.4611 40.7344 65.9019 40.6638 66.3275C40.4319 67.6855 39.3427 68.7039 37.9761 68.7394C36.0095 68.7901 34.0428 68.7952 32.0762 68.7648C30.2256 68.7344 29.0355 67.4727 29.0103 65.5928C28.9901 64.2146 29.0052 62.8313 29.0052 61.4531C29.0052 61.2048 29.0052 60.9565 29.0052 60.8552C26.9731 60.0597 25.0417 59.33 23.1255 58.5446C22.4549 58.2659 21.8195 57.8859 21.2043 57.4958C20.8059 57.2424 20.5588 57.2525 20.221 57.6123C19.2629 58.6308 18.2644 59.6087 17.271 60.5968C15.7986 62.0611 14.1042 62.0662 12.6217 60.5968C11.3963 59.3857 10.1861 58.1697 8.98091 56.9384C7.52359 55.4487 7.52863 53.7462 8.98595 52.2615C10.06 51.162 11.1543 50.0827 12.2334 48.9883C12.2637 48.9579 12.2838 48.9123 12.3444 48.8059C10.761 46.2521 9.60116 43.4804 8.91536 40.4605C7.32188 40.4605 5.74353 40.4605 4.17023 40.4605C2.05232 40.4554 0.847128 39.2495 0.842085 37.1416C0.842085 35.3732 0.837042 33.5998 0.842085 31.8314C0.85217 30.0428 1.94138 28.8165 3.72648 28.7203C5.14346 28.6392 6.56044 28.6899 7.98247 28.6848C8.27998 28.6848 8.57246 28.6848 8.91031 28.6848C9.61124 25.6801 10.7509 22.8882 12.3847 20.2837C11.2551 19.1487 10.1508 18.0492 9.05151 16.9446C7.48829 15.3687 7.49333 13.7118 9.06159 12.1309C10.2416 10.9402 11.4215 9.75451 12.6066 8.5739C14.1093 7.07913 15.7935 7.0842 17.3063 8.58403C18.4258 9.69877 19.5352 10.8236 20.6647 11.9587C22.7524 10.6564 24.9207 9.6481 27.2302 8.95899C27.795 8.79178 28.5917 8.78164 28.8691 8.40162C29.1666 7.98613 28.9952 7.21594 29.0002 6.60284C29.0103 5.58944 28.9901 4.5811 29.0052 3.5677C29.0355 1.63718 30.2861 0.37043 32.1972 0.350162C33.9823 0.329894 35.7674 0.329894 37.5525 0.350162C39.4687 0.37043 40.7143 1.61184 40.7546 3.55757C40.7849 5.027 40.7445 6.5015 40.7798 7.97092C40.7849 8.17867 40.9765 8.52829 41.1429 8.56883C43.9617 9.26301 46.5889 10.4031 49.1052 11.9688C50.1642 10.8996 51.208 9.84065 52.2569 8.78671C54.0268 7.0082 55.6001 7.00313 57.3499 8.76138C58.4997 9.91665 59.6544 11.0669 60.7941 12.2272C62.2262 13.6814 62.2312 15.3991 60.8092 16.8483C59.7149 17.963 58.6156 19.0626 57.5163 20.1723C57.4861 20.2027 57.4659 20.2483 57.4105 20.3344C59.0039 22.8983 60.1637 25.675 60.8445 28.6899C62.4481 28.6899 64.0012 28.6797 65.5543 28.6899C67.3545 28.7 68.5244 29.5411 68.8522 31.0815C68.9329 31.4565 68.948 31.8618 68.8976 32.2469C68.822 32.8144 68.4589 33.164 67.8689 33.1488C67.289 33.1336 66.9461 32.7992 66.8705 32.2114C66.699 30.8585 66.6334 30.7977 65.3123 30.7977C63.7793 30.7977 62.2464 30.8028 60.7134 30.7977C59.599 30.7927 59.1199 30.4583 58.8678 29.3587C58.1971 26.4503 57.0776 23.7344 55.4943 21.2009C54.9295 20.2939 55.0354 19.7061 55.8018 18.9308C56.9465 17.7705 58.1013 16.6254 59.246 15.465C59.9519 14.7506 59.957 14.3604 59.2661 13.6612C58.0761 12.4501 56.8759 11.2493 55.6758 10.0535C54.99 9.37448 54.6219 9.37955 53.9361 10.0687C52.7813 11.2189 51.6417 12.3792 50.4869 13.5294C49.6347 14.3807 49.1405 14.4617 48.1219 13.8233C45.6409 12.2627 42.9885 11.1429 40.1243 10.5044C39.0099 10.2561 38.6518 9.75957 38.6417 8.6043C38.6317 6.97273 38.6468 5.34115 38.6367 3.70451C38.6317 2.74685 38.3593 2.4631 37.4164 2.45803C35.722 2.44283 34.0277 2.44283 32.3384 2.45803C31.3955 2.4631 31.1131 2.75192 31.103 3.70451C31.0879 5.29048 31.103 6.87645 31.0979 8.46242C31.0929 9.82545 30.7954 10.2308 29.4994 10.5298C26.7613 11.1631 24.2046 12.2221 21.8144 13.7118C20.5639 14.4921 20.1604 14.4212 19.1267 13.3825C18.0274 12.2779 16.9281 11.1682 15.8238 10.0687C15.138 9.38462 14.7598 9.37955 14.079 10.0484C12.8587 11.2594 11.6434 12.4806 10.4382 13.7068C9.81799 14.3401 9.82807 14.7708 10.4584 15.4143C11.6031 16.5747 12.7578 17.7249 13.9025 18.8802C14.7346 19.7213 14.8354 20.2787 14.2202 21.2617C12.6721 23.7344 11.5728 26.3793 10.9223 29.227C10.6349 30.4836 10.1811 30.7977 8.89519 30.7977C7.29163 30.7977 5.69311 30.7927 4.08955 30.7977C3.21213 30.8028 2.89444 31.117 2.8894 32.0037C2.87931 33.7265 2.87931 35.4543 2.8894 37.1771C2.89444 38.0385 3.24238 38.383 4.11476 38.3881C5.78387 38.4033 7.45803 38.3881 9.12715 38.3932C10.1861 38.3982 10.6198 38.7023 10.8669 39.7613C11.5527 42.69 12.662 45.4312 14.2656 47.9799C14.8203 48.8616 14.7144 49.4544 13.9782 50.1993C12.8184 51.3748 11.6485 52.5402 10.4836 53.7158C9.79782 54.41 9.80286 54.8153 10.4987 55.5196C11.6787 56.7104 12.8587 57.896 14.0437 59.0817C14.7194 59.7556 15.1581 59.7506 15.8439 59.0665C16.9987 57.9163 18.1383 56.756 19.2931 55.6058C20.105 54.8001 20.6294 54.714 21.6077 55.3321C24.0836 56.9029 26.7512 57.9974 29.5952 58.6764C30.7853 58.9601 31.0828 59.3705 31.0879 60.617C31.0929 62.203 31.0828 63.789 31.0929 65.3749C31.0979 66.4542 31.3551 66.7025 32.4443 66.7025C34.0933 66.7025 35.7372 66.7076 37.3861 66.7025C38.3493 66.7025 38.6216 66.439 38.6266 65.4864C38.6367 63.8751 38.6266 62.2689 38.6317 60.6576C38.6367 59.3857 38.9544 58.9905 40.1596 58.6662C41.0824 58.4179 42.0052 58.1494 42.9179 57.8555C43.0843 57.7998 43.286 57.5768 43.3062 57.4096C43.4776 55.8439 43.6087 54.2782 43.7499 52.7074C38.9342 55.0332 33.8361 55.4892 28.622 53.7107C23.4281 51.9423 19.5049 48.6133 17.0038 43.7034C12.9192 35.7026 14.7497 26.0094 21.0883 19.9696C28.0572 13.3318 38.4753 12.7339 45.999 17.7502C52.8469 22.3156 57.9752 32.8448 52.9326 43.5564C53.3562 43.4399 53.6789 43.3132 54.0168 43.2727C55.1715 43.1308 56.3263 43.0041 57.4861 42.918C57.834 42.8927 58.0206 42.8319 58.1164 42.467C58.3534 41.5347 58.6257 40.6125 58.888 39.6853C59.1552 38.7327 59.5737 38.4033 60.5571 38.3982C62.206 38.3881 63.8499 38.3982 65.4988 38.3932C66.5175 38.3881 66.7999 38.1145 66.8553 37.1011C66.8957 36.3461 67.294 35.9103 67.9143 35.9306C68.5093 35.9509 68.8875 36.3917 68.9178 37.096C68.9984 39.1076 67.7126 40.4554 65.7006 40.4656C64.1424 40.4757 62.5892 40.4706 61.0311 40.4757C60.9857 40.4757 60.9454 40.496 60.8546 40.5162C60.6125 41.3726 60.3654 42.2441 60.1385 43.0548C61.4042 43.5818 62.7002 43.9821 63.86 44.6306C67.9294 46.9159 70.3247 50.407 70.9903 55.0636C71.0054 55.17 71.071 55.2713 71.1164 55.3727C71.1365 56.3303 71.1365 57.2981 71.1365 58.2609ZM19.873 44.4584C23.2465 49.3683 27.8202 52.0943 33.6293 52.5858C37.3407 52.9 40.8454 52.0335 44.0676 50.1233C44.9904 49.576 45.8073 48.9275 46.4931 48.0458C47.189 47.154 48.1219 46.4497 48.9439 45.6542C49.2918 45.3147 49.6145 44.9448 50.0079 44.5293C49.3422 44.1391 48.7976 43.8098 48.248 43.4906C46.7705 42.6292 46.6142 41.9654 47.1991 40.3744C47.7235 38.9455 48.2782 37.4659 48.4396 35.9711C49.1456 29.3232 45.0056 23.2023 38.5964 21.4289C33.5285 20.0253 29.0204 21.2819 25.2989 24.9606C22.3641 27.8589 21.0933 31.4919 21.3858 35.6519C21.5119 37.395 22.0061 39.0164 22.7221 40.5973C23.2768 41.8337 22.9944 42.6343 21.8396 43.3183C21.2093 43.6882 20.579 44.0479 19.873 44.4584ZM19.9083 24.6565C20.2663 24.8694 20.5941 25.0771 20.9269 25.2595C22.0918 25.903 21.7237 25.9334 22.5002 24.9555C22.6969 24.7072 22.8835 24.4387 23.1104 24.2157C24.0887 23.2682 25.077 22.3308 26.0956 21.3579C25.7578 20.7803 25.3897 20.1571 25.0115 19.5034C22.9339 20.9019 21.2698 22.5943 19.9083 24.6565ZM49.9272 24.6261C48.5304 22.5385 46.8512 20.836 44.7686 19.473C44.3752 20.1571 44.0172 20.7854 43.7348 21.2819C45.2375 22.7868 46.6696 24.2157 48.132 25.675C48.6665 25.3609 49.2716 25.0112 49.9272 24.6261ZM50.966 42.6495C52.1006 40.425 52.6905 38.1246 52.867 35.6671C52.1056 35.6671 51.3643 35.6671 50.7743 35.6671C50.2348 37.6737 49.7103 39.6042 49.1708 41.6107C49.67 41.8995 50.2953 42.2593 50.966 42.6495ZM52.8721 33.4326C52.6805 30.9447 52.1006 28.6544 50.9609 26.4503C50.2751 26.8455 49.6549 27.2103 49.1809 27.4839C49.7255 29.5107 50.2449 31.4413 50.7743 33.4275C51.3643 33.4326 52.0854 33.4326 52.8721 33.4326ZM35.9691 18.6218C37.9812 19.1639 39.9074 19.6858 41.9144 20.228C42.2069 19.7162 42.5649 19.093 42.9532 18.4191C40.7243 17.3094 38.44 16.6608 35.9691 16.5646C35.9691 17.3449 35.9691 18.0289 35.9691 18.6218ZM19.0712 35.6773C18.4611 35.6773 17.745 35.6773 16.9937 35.6773C17.15 38.1398 17.745 40.4149 18.8594 42.614C19.5301 42.2238 20.1504 41.8641 20.6546 41.5702C20.1201 39.5738 19.6058 37.6635 19.0712 35.6773ZM33.7857 18.637C33.7857 18.0289 33.7857 17.3297 33.7857 16.5646C31.3097 16.7014 29.0305 17.3347 26.8319 18.4596C27.2302 19.1487 27.5933 19.772 27.8706 20.2584C29.8978 19.701 31.7989 19.1791 33.7857 18.637ZM18.8292 26.5465C17.7702 28.7051 17.1147 30.9751 17.0189 33.4275C17.8156 33.4275 18.5115 33.4275 19.1318 33.4275C19.4747 32.0138 19.7974 30.6609 20.1403 29.308C20.2916 28.7101 20.7857 27.9856 20.5941 27.565C20.3773 27.0887 19.5654 26.886 19.0107 26.5668C18.9704 26.5516 18.92 26.5567 18.8292 26.5465Z" fill="#701084"/>
<path d="M56.0999 56.2383C57.2345 54.9918 58.3035 53.796 59.4028 52.6306C60.1995 51.7894 61.1879 51.531 62.2822 51.9415C63.8807 52.5394 64.5009 54.6827 63.326 55.9241C61.435 57.9154 59.4482 59.8206 57.4463 61.6954C56.5688 62.5213 55.2073 62.4909 54.3047 61.6802C53.2306 60.7175 52.1918 59.7142 51.2136 58.6552C50.2454 57.6013 50.3412 56.0812 51.3245 55.1185C52.3028 54.1608 53.7954 54.1405 54.8594 55.0729C55.2073 55.3718 55.525 55.6961 56.0999 56.2383ZM55.8578 60.2159C56.0394 60.1094 56.2159 60.0436 56.3419 59.922C58.1018 58.2144 59.8566 56.5017 61.5964 54.779C61.9393 54.4395 61.8737 53.953 61.4905 53.9024C61.2736 53.872 60.9761 54.0341 60.7996 54.2013C59.4583 55.4833 58.1421 56.7906 56.8109 58.0827C56.1453 58.7262 55.641 58.7211 54.9754 58.0776C54.5316 57.6469 54.0979 57.2061 53.6542 56.7754C53.397 56.522 53.0692 56.2585 52.802 56.6588C52.691 56.821 52.807 57.277 52.9684 57.4543C53.7298 58.2752 54.5467 59.0504 55.3485 59.8358C55.4948 59.9777 55.6712 60.079 55.8578 60.2159Z" fill="#701084"/>
<path d="M38.1176 34.6231C37.8958 35.1704 38.1832 35.4035 38.5715 35.6365C40.3666 36.731 42.1517 37.8457 43.9368 38.9554C44.3907 39.2341 44.7084 39.6547 44.4865 40.1512C44.3352 40.4857 43.9419 40.7947 43.5889 40.9265C43.362 41.0126 42.9838 40.8099 42.7216 40.6478C40.9819 39.5888 39.2522 38.5197 37.5377 37.4303C37.1343 37.1718 36.8418 37.1161 36.3779 37.3745C34.7391 38.2866 32.6968 37.5519 31.9454 35.8443C31.179 34.1063 32.0463 32.12 33.8516 31.4765C35.561 30.8685 37.4722 31.8667 37.9714 33.6452C38.0622 33.9695 38.0722 34.3191 38.1176 34.6231ZM34.9055 35.6568C35.5358 35.6517 36.0199 35.1501 36.0048 34.5218C35.9896 33.8834 35.4955 33.3969 34.8702 33.4121C34.2348 33.4273 33.7658 33.9138 33.7709 34.5522C33.781 35.1906 34.26 35.6619 34.9055 35.6568Z" fill="#701084"/>
</svg>
